<?xml version="1.0" encoding="UTF-8" standalone="no"?>
<svg id="svg2" xmlns:rdf="http://www.w3.org/1999/02/22-rdf-syntax-ns#" xmlns="http://www.w3.org/2000/svg" height="859pt" width="1073pt" version="1.1" xmlns:cc="http://creativecommons.org/ns#" xmlns:dc="http://purl.org/dc/elements/1.1/" viewBox="0 0 1073 859">
<g id="g4853">
<path id="path4-4" fill="#478e3a" d="m699.67 4.39c29.56-4.91 51.37 28.44 44.89 55.05-10.15 52.69-64.93 83.82-72.73 137.5-4.88 21.76 9.26 48.35 32.77 50.45 16.25 1.51 30.08-9.85 45.97-10.91 9.36-2.18 20.28 3.58 21.61 13.48 5.11 28.51-12.62 53.64-18.76 80.46-5.52 24.45-9.92 51.96 1.86 75.28 11.06 20.66 38.6 19.58 58.46 16.07 58.79-12.1 110.38-45.33 168.07-60.94 32.59-8.59 72.33 8.13 83.16 41.31 7.9 21.11-5.44 43.82-24.05 53.8-31.93 18.13-70.12 18.67-105.78 18-59.31-2.24-120.03-8.24-178.2 6.96-27.16 7.81-55.27 22.47-68.15 48.89-10.84 29.1 12.3 55.07 30.46 74.96 36.84 41.46 92.88 63.92 119.75 114.25 15.27 28.66 18.74 65.14 1.97 93.97-16.47 32.09-57.02 49.4-91.37 37.44-39.54-13.15-68.7-48.43-83.73-86.29-15.67-46.23-12.09-96.8-29.45-142.55-9.43-27.24-34.96-48.73-64.1-50.29-21.98 4.43-39.92 21.59-49.94 41.1-18.06 46.96-1.27 105.09-36.15 145.84-21.98 28.19-74.13 22.72-86.04-12.39-13.44-25.02 4.25-52.23 21.81-69.83 18.91-23.85 46.6-50.21 42.45-83.33-9.69-21.17-39.47-15.06-56.56-7.76-30.94 11.73-61.92 26.3-95.61 26.86-13.81 0.21-25.37-8.88-29.56-21.64-68.3 22.63-121.44 81.32-194.71 90.92-35.35 6.52-70.22-19.17-80.88-52.2-7.61-28.12 3.11-60.71 26.58-78.15 29.52-18.28 65.79-24.14 99.85-18.26 53.58 8.1 110.45 22.45 163.46 4.65 12.38-4.71 0.59-18.65-7.19-21.01-18.39-12.06-44.51-7.52-59.91-24.03-9.67-14.13-1.93-31.35-1.92-46.76-2.25-23.33-24.84-39.46-46.6-42.93-43.52-3.53-85.72 15.76-129.2 10.47-28.58-4.09-53.22-33.9-43.37-63.03 8.56-28.8 45.41-37.28 70.33-24.94 43.24 18.47 79.86 52.99 127.67 60.33 19.83 3.94 43.47-0.05 56.51-16.8 7.54-11.89 10.06-30.17-0.6-41.17-14.85-16.77-38.77-21.51-53.45-38.5-14.81-16.69-11.94-44.53 3.36-60.04 16.05-16.43 45.68-15.49 60.7 1.99 22.91 24.88 33.82 61.78 66.87 76.22 31.77 9.86 66.96-28.28 51.66-58.79-38.15-54.86-101.12-93.91-121.89-160.1-5.87-20.6-1-45.9 17.97-58.04 34.9-22.53 85.71-7.13 106.1 27.99 26.96 43.15 36.19 94.07 53.88 141.14 9.11 32.74 61.64 53.86 85.76 24.57 19.05-26.65 18.97-61.12 18.38-92.4-0.95-12.54 10.86-23.81 23.46-21.27 17.72 4.18 26.44 23.76 25.11 40.62-0.09 18.22-18.13 37.05-9 54.8 17.76 7.01 41.35-3.45 51.38-19.4 19.89-37.55 6.2-81.69 8.93-121.99-1.05-27.8 19.56-55.75 47.71-59.63m-6.09 10.98c-23.78 2.95 17.17 4.49 1.85 9.03-21.19-2.74-28.3 23.72-30.98 40.08-2.3 34-7.44 67.86-7.45 101.98 10.11-3.8 7.27-31.54 22.79-26.68-6.05 11.95-14.46 22.94-18 36.02 5.41-3.43 6.29-10.92 10.25-15.76 18.95-36.2 59.5-66.31 53.53-111.36-0.56-16.8-13.73-35.08-31.99-33.31m-398.3 42.72c-14.49 21.77 1.82 48.48 16.93 64.71 2.47 3.55 4.49 7.63 7.9 10.4 6.11 10.41 16.03 18.73 23.91 27.97 27.87 27.8 54.86 56.59 80.03 86.78-5.37-11.36-14.76-20.18-21.19-30.86 3.5 2.15 5.55 6.08 9.35 7.82-14.72-43.59-14.66-90.77-30.26-133.86-9.99-23.65-32.86-42.97-58.93-45-11.32-1.34-17.71 9.82-27.74 12.04m337.33 215.41c-20.57 4.12-42.11 8.68-58.45 22.53-21.43 2.83-35.95-18.4-56.9-18.58-19.06 1.99-37.64 11.01-49.22 26.59-8.83 9.88-15.82 25.25-30.67 26.59-38.4 3.03-80.11-9.77-116.15 8.52-13.35 5.1-13.89 22.73-6.09 32.77 14.32 20.57 36.02 35.34 58.9 45.05 14.09 5.7 27.68 17.16 28.96 33.27-0.87 11.11-0.85 22.59 2.3 33.38 2.69 8.17 15.07 6.23 17.71 14.42 6.45 13.79 16.23 27.86 31.48 32.55 39.45 10.77 76.79-23.66 116.02-6.96 11.88 6.3 37.59 4.33 35.61-12.36 3.95 0.6 7.76 5.28 10.91-0.22 19.92-18.08 54.66-19.89 61.9-50.1 6.31-29.51 32.64-49.55 40.02-78.5 3.15-22.53-20.89-32.15-36.44-41.91-12.93-16.35-13.81-38.42-23.59-56.36-5-9.22-16.32-12.96-26.3-10.68m-605.09 62.97c-12.55 8.64-19.02 26.24-12.55 40.51 8.35 18.84 30.37 27.01 49.81 26.67 38.58-3.45 76.44-13.19 115.32-13.74-42-4.41-85.51 10.28-128.37 6.37-15.13-1.24-30.95-12.15-33.35-27.86-3.72-11.08 5.18-25.13 9.14-31.95m-6.43 23.27c-3.31 19.4 18.39 30.65 34.96 30.15 34.7-1.29 69.35-15.45 104.04-7.72-21.32-8.4-41.91-20.76-63-30.11-7.18-2.03-13.69-6.54-21.04-7.7-1.01-0.52-2.08-0.92-3.19-1.19-16.62-8.5-44.63-3.46-51.77 16.57m950.51 18.79c-20.05 1.54-39.12 8.85-56.6 18.47-37.61 19.42-75.19 39.12-114.64 54.49 33-3.2 64.7-33.93 100.81-22.89-27.84 13.15-59.73 17.52-87.28 30.44 15.7 3.73 31.9 2.14 47.88 2.29 45.09-3.04 90.56 3.36 135.29-4.3 16.91-2.54 39.32-11.81 38.52-32.28-0.18-4.17 6.39-14.3 8.36-6.72 3.89 6.43-0.07 15.39 1.79 21.01 10.15-12.5 7.08-32.44-5.14-42.66-18.85-15.9-45.01-20.54-68.99-17.85m-359.73 142.73c8.21 23.27 21.96 49.61 24.04 70.64-6.96-6.84-9.29-17.03-15.94-23.98 23.26 41.07 32.5 87.71 40.53 133.71 6.55 40.12 12.82 84.05 42.26 114.61 13.79 12.16 30.59 22.19 48.16 26.98 19.15 3.08 40.05 2.05 56.98-8.31 24.03-13.54 36.14-43.2 32.21-69.98-3.04-33.13-23.11-62.03-47.42-83.62-52.51-47.79-110.43-89.94-157.64-143.34-6.01-6.32-0.7 1.65 1.38 4.1-6.69-0.3-7.36-14-14.5-10.51-2.09-4.51-5.05-8.39-10.06-10.3m-546.06 44.56c-20.27 6.97-40.05 26.32-36.17 49.35 1.4 11.54 14.07 16.98 15.62 28.36 23.67 20.6 61.29 16.87 86.39 3.14 1.84-0.49 3.66-1.04 5.41-1.78 14-4.28 27.28-11.25 39.99-18.35 34.74-18.16 69.45-39.89 107.05-53.44 3.8-2.17 9.75-2.14 11.98-6.06-21.02 4.91-40.38 14.93-60.97 21.08 7.09-5.76 16.73-7.45 24.37-12.53-30.03-2.96-60.5-3.04-90.46-7.61-34.19-3.4-69.36-12.27-103.21-2.16m420.74 39.74c-19.04 28.27-42.12 53.81-63.87 80.12-15.58 17.55-20.65 44.91-7.68 65.3 10.18 16.73 35.25 22.73 51.77 14.76-6.2-0.25-16.73-0.1-23.86-3.88 8.93-4.33 20.47 0.65 28.99-5.88 16.39-11.26 18.71-33.09 19.62-51.21-1.03-29.31 6.22-58.59 1.6-87.78-18.36 27.7-34.43 57.85-54.46 84.65-10.6 9.37-18.08 22.08-21.61 35.57-4.37-13.05-0.55-27.29 6.64-38.55 17.51-32.21 46.94-56.26 62.38-89.73 0.09-0.83 1.89-4.37 0.48-3.37z"/>
<path id="path6-5" fill="#569c3b" d="m693.58 15.37c18.26-1.77 31.43 16.51 31.99 33.31 5.97 45.05-34.58 75.16-53.53 111.36-3.96 4.84-4.84 12.33-10.25 15.76 3.54-13.08 11.95-24.07 18-36.02-15.52-4.86-12.68 22.88-22.79 26.68 0.01-34.12 5.15-67.98 7.45-101.98 2.68-16.36 9.79-42.82 30.98-40.08 15.32-4.54-25.63-6.08-1.85-9.03z"/>
<path id="path8-3" fill="#4ea63d" d="m295.28 58.09c10.03-2.22 16.42-13.38 27.74-12.04 26.07 2.03 48.94 21.35 58.93 45 15.6 43.09 15.54 90.27 30.26 133.86-3.8-1.74-5.85-5.67-9.35-7.82 6.43 10.68 15.82 19.5 21.19 30.86-25.17-30.19-52.16-58.98-80.03-86.78 3.15 0.82 6.72 0.51 8.9-2.18-19.68-26.09-25.18-60.04-44.57-86.3-2.27-3.15-8.26-7.23-11.01-2.45-7.24 12.86-0.75 28.16 7.73 38.72 2.27 4.66 4.49 9.37 7.14 13.84-15.11-16.23-31.42-42.94-16.93-64.71z"/>
<path id="path10-4" fill="#91c670" d="m297.34 70.24c2.75-4.78 8.74-0.7 11.01 2.45 19.39 26.26 24.89 60.21 44.57 86.3-2.18 2.69-5.75 3-8.9 2.18-7.88-9.24-17.8-17.56-23.91-27.97 14.54-0.4 10.83-13.38 4.88-21.2-7.29-11.16-8.85-27.7-21.92-34-11.13 8.74-0.39 20.83 2 30.96-8.48-10.56-14.97-25.86-7.73-38.72z"/>
<path id="path12-0" fill="#cde2b6" d="m303.07 78c13.07 6.3 14.63 22.84 21.92 34 5.95 7.82 9.66 20.8-4.88 21.2-3.41-2.77-5.43-6.85-7.9-10.4-2.65-4.47-4.87-9.18-7.14-13.84-2.39-10.13-13.13-22.22-2-30.96z"/>
<path id="path14-6" fill="#499b3b" d="m632.61 273.5c9.98-2.28 21.3 1.46 26.3 10.68 9.78 17.94 10.66 40.01 23.59 56.36 15.55 9.76 39.59 19.38 36.44 41.91-7.38 28.95-33.71 48.99-40.02 78.5-7.24 30.21-41.98 32.02-61.9 50.1-3.15 5.5-6.96 0.82-10.91 0.22 1.98 16.69-23.73 18.66-35.61 12.36-39.23-16.7-76.57 17.73-116.02 6.96-15.25-4.69-25.03-18.76-31.48-32.55-2.64-8.19-15.02-6.25-17.71-14.42-3.15-10.79-3.17-22.27-2.3-33.38-1.28-16.11-14.87-27.57-28.96-33.27-22.88-9.71-44.58-24.48-58.9-45.05-7.8-10.04-7.26-27.67 6.09-32.77 36.04-18.29 77.75-5.49 116.15-8.52 14.85-1.34 21.84-16.71 30.67-26.59 11.58-15.58 30.16-24.6 49.22-26.59 20.95 0.18 35.47 21.41 56.9 18.58 16.34-13.85 37.88-18.41 58.45-22.53m-28.26 21.85c-10.68 1.28-20.5 5.91-30.55 9.45-10.11 3.44-16.74 16.1-28.9 11.99-16.76-5.88-35.09-18.06-52.89-7.74-17.24 5.97-23.57 24.18-33.11 37.86-25.27 12.13-55.25-0.16-81.79 8.22-12.29 1.58-33.81 11.1-26.06 26.67 16.79 29.45 52.8 35.55 80.05 51.05 15.61 10.4 8.55 32.79 21.22 45 18.27 4.1 23.63 26.09 41.72 31.14 29.61 10.33 55.22-15.32 84.68-11.93 11.55 0.3 23.87 7.56 34.98 1.64 11.07-7.03 18.89-18.19 30.67-24.34 12.76-5.98 25.44-15.6 26.03-30.93 0.74-20.75 14.2-37.59 18.99-57.21 4.28-18.28-13.87-29.48-28.43-35.18-27.62-8.54-24.56-55.28-56.61-55.69z"/>
<path id="path16-1" fill="#49a63a" d="m604.35 295.35c32.05 0.41 28.99 47.15 56.61 55.69 14.56 5.7 32.71 16.9 28.43 35.18-4.79 19.62-18.25 36.46-18.99 57.21-0.59 15.33-13.27 24.95-26.03 30.93-11.78 6.15-19.6 17.31-30.67 24.34-11.11 5.92-23.43-1.34-34.98-1.64-29.46-3.39-55.07 22.26-84.68 11.93-18.09-5.05-23.45-27.04-41.72-31.14-12.67-12.21-5.61-34.6-21.22-45-27.25-15.5-63.26-21.6-80.05-51.05-7.75-15.57 13.77-25.09 26.06-26.67 26.54-8.38 56.52 3.91 81.79-8.22 9.54-13.68 15.87-31.89 33.11-37.86 17.8-10.32 36.13 1.86 52.89 7.74 12.16 4.11 18.79-8.55 28.9-11.99 10.05-3.54 19.87-8.17 30.55-9.45z"/>
<path id="path18-7" fill="#6eb84c" d="m27.52 336.47c-3.96 6.82-12.86 20.87-9.14 31.95 2.4 15.71 18.22 26.62 33.35 27.86 42.86 3.91 86.37-10.78 128.37-6.37-38.88 0.55-76.74 10.29-115.32 13.74-19.44 0.34-41.46-7.83-49.81-26.67-6.47-14.27 0-31.87 12.55-40.51z"/>
<path id="path20-7" fill="#4fa63d" d="m21.09 359.74c7.14-20.03 35.15-25.07 51.77-16.57-7.5-1.38-15.37-3.13-22.95-1.36-4.61 1.63-12.3 2.59-12.27 8.86 17.36 8.74 38.11 3.55 56.66 7.96 4.83 1.54 3.33-3.19 2.79-6.57 21.09 9.35 41.68 21.71 63 30.11-34.69-7.73-69.34 6.43-104.04 7.72-16.57 0.5-38.27-10.75-34.96-30.15z"/>
<path id="path22-7" fill="#cee3b7" d="m49.91 341.81c7.58-1.77 15.45-0.02 22.95 1.36 1.11 0.27 2.18 0.67 3.19 1.19 3.53 18.33-18.94 7.53-28.65 6.47-5.4-2.07 1.26-6.15 2.51-9.02z"/>
<path id="path24-3" fill="#94c773" d="m37.64 350.67c-0.03-6.27 7.66-7.23 12.27-8.86-1.25 2.87-7.91 6.95-2.51 9.02 9.71 1.06 32.18 11.86 28.65-6.47 7.35 1.16 13.86 5.67 21.04 7.7 0.54 3.38 2.04 8.11-2.79 6.57-18.55-4.41-39.3 0.78-56.66-7.96z"/>
<path id="path26-0" fill="#479f3b" d="m971.6 378.53c23.98-2.69 50.14 1.95 68.99 17.85 12.22 10.22 15.29 30.16 5.14 42.66-1.86-5.62 2.1-14.58-1.79-21.01-1.97-7.58-8.54 2.55-8.36 6.72 0.8 20.47-21.61 29.74-38.52 32.28-44.73 7.66-90.2 1.26-135.29 4.3-15.98-0.15-32.18 1.44-47.88-2.29 27.55-12.92 59.44-17.29 87.28-30.44-36.11-11.04-67.81 19.69-100.81 22.89 39.45-15.37 77.03-35.07 114.64-54.49 17.48-9.62 36.55-16.93 56.6-18.47z"/>
<path id="path28-3" fill="#439739" d="m611.87 521.26c5.01 1.91 7.97 5.79 10.06 10.3 7.14-3.49 7.81 10.21 14.5 10.51 40.22 50.76 90.87 91.5 137.37 136.14 16.64 19.1 36.69 36.15 47.22 59.75 10.36 20.94 12.75 47.53-0.1 67.96-14.03 24.6-43.3 35.84-70.58 34.71 0.14 0.65 0.43 1.94 0.58 2.59-17.57-4.79-34.37-14.82-48.16-26.98-29.44-30.56-35.71-74.49-42.26-114.61-8.03-46-17.27-92.64-40.53-133.71 6.65 6.95 8.98 17.14 15.94 23.98-2.08-21.03-15.83-47.37-24.04-70.64m31.02 43.83c17.38 44.87 30.78 91.18 40.95 138.19 3.19 12.33 6.37 24.81 11.04 36.67 2.28 8.27 6.13 16 9.16 24.01 9.37 28.53 32.81 53.48 63.4 58.79 13.6 2.38 24.44-7.4 34.71-14.59-1.8 4.25-5.2 7.48-8.1 10.97 22.12-11.19 24.2-40.74 14.91-61.11-6.61-13.58-16.77-25.04-27.23-35.75-35.59-32.31-74.27-61.27-107.15-96.5-0.88-2.83-2.38-0.51-3.67-0.1-10.15-19.74-17.01-41.44-28.02-60.58z"/>
<path id="path30-2" fill="#6fba4d" d="m636.43 542.07c-2.08-2.45-7.39-10.42-1.38-4.1 47.21 53.4 105.13 95.55 157.64 143.34 24.31 21.59 44.38 50.49 47.42 83.62 3.93 26.78-8.18 56.44-32.21 69.98-16.93 10.36-37.83 11.39-56.98 8.31-0.15-0.65-0.44-1.94-0.58-2.59 27.28 1.13 56.55-10.11 70.58-34.71 12.85-20.43 10.46-47.02 0.1-67.96-10.53-23.6-30.58-40.65-47.22-59.75-46.5-44.64-97.15-85.38-137.37-136.14z"/>
<path id="path32-2" fill="#4ea63d" d="m65.81 565.82c33.85-10.11 69.02-1.24 103.21 2.16 29.96 4.57 60.43 4.65 90.46 7.61-7.64 5.08-17.28 6.77-24.37 12.53 20.59-6.15 39.95-16.17 60.97-21.08-2.23 3.92-8.18 3.89-11.98 6.06-37.6 13.55-72.31 35.28-107.05 53.44-0.71-2.82 0.01-7.57-2.38-9.01-34.08 8.38-70.17 6.79-104.55 14.52-4.68 1.9-12.8 4.01-11.93 10.43 14.19 14.64 37.13 14.6 55.15 7.72 6.17-0.83 12.29-1.95 18.31-3.53-25.1 13.73-62.72 17.46-86.39-3.14-1.55-11.38-14.22-16.82-15.62-28.36-3.88-23.03 15.9-42.38 36.17-49.35z"/>
<path id="path34-3" fill="#50a83d" d="m642.89 565.09c11.01 19.14 17.87 40.84 28.02 60.58 1.29-0.41 2.79-2.73 3.67 0.1 32.88 35.23 71.56 64.19 107.15 96.5 10.46 10.71 20.62 22.17 27.23 35.75 9.29 20.37 7.21 49.92-14.91 61.11 2.9-3.49 6.3-6.72 8.1-10.97-10.27 7.19-21.11 16.97-34.71 14.59-30.59-5.31-54.03-30.26-63.4-58.79 1.86 3.02 3.93 5.91 5.84 8.9 4.72 8.66 9.46 17.68 17.21 24.06 8.48 10.37 22.85 16.66 36.04 15.12 3.25-17.95-12.53-31.13-21.13-45.04-14.97-23.44-36.31-42.82-47.22-68.67-3.99-2.85-8.11 2.48-10.94 4.95-10.17-47.01-23.57-93.32-40.95-138.19z"/>
<path id="path36-6" fill="#579e3a" d="m486.55 605.56c1.41-1-0.39 2.54-0.48 3.37-15.44 33.47-44.87 57.52-62.38 89.73-7.19 11.26-11.01 25.5-6.64 38.55 3.53-13.49 11.01-26.2 21.61-35.57 20.03-26.8 36.1-56.95 54.46-84.65 4.62 29.19-2.63 58.47-1.6 87.78-0.91 18.12-3.23 39.95-19.62 51.21-8.52 6.53-20.06 1.55-28.99 5.88 7.13 3.78 17.66 3.63 23.86 3.88-16.52 7.97-41.59 1.97-51.77-14.76-12.97-20.39-7.9-47.75 7.68-65.3 21.75-26.31 44.83-51.85 63.87-80.12z"/>
<path id="path38-1" fill="#91c570" d="m70.12 632.05c34.38-7.73 70.47-6.14 104.55-14.52 2.39 1.44 1.67 6.19 2.38 9.01-12.71 7.1-25.99 14.07-39.99 18.35 0.95-5.53 0.75-11.4-1.8-16.48-15.16-0.52-30.08 3.71-45.2 4.63-6.54 1.37-16.2 1.78-19.21 8.9 9.33 13.95 28.47 8.61 42.49 8.26-18.02 6.88-40.96 6.92-55.15-7.72-0.87-6.42 7.25-8.53 11.93-10.43z"/>
<path id="path40-3" fill="#cde2b5" d="m90.06 633.04c15.12-0.92 30.04-5.15 45.2-4.63 2.55 5.08 2.75 10.95 1.8 16.48-1.75 0.74-3.57 1.29-5.41 1.78-6.02 1.58-12.14 2.7-18.31 3.53-14.02 0.35-33.16 5.69-42.49-8.26 3.01-7.12 12.67-7.53 19.21-8.9z"/>
<path id="path42-4" fill="#82bf5f" d="m683.84 703.28c2.83-2.47 6.95-7.8 10.94-4.95 10.91 25.85 32.25 45.23 47.22 68.67 8.6 13.91 24.38 27.09 21.13 45.04-13.19 1.54-27.56-4.75-36.04-15.12 1.92 0.8 3.86 1.55 5.81 2.3 6.5 2.78 13.21 6.34 20.55 5.27 3.81-5.8 0.11-12.92-2.8-18.17-12.39-18.37-25.38-36.38-39.36-53.58-4.26-7.69-16.21 0.44-16.41 7.21-4.67-11.86-7.85-24.34-11.04-36.67z"/>
<path id="path44-0" fill="#add390" d="m694.88 739.95c0.2-6.77 12.15-14.9 16.41-7.21 13.98 17.2 26.97 35.21 39.36 53.58 2.91 5.25 6.61 12.37 2.8 18.17-7.34 1.07-14.05-2.49-20.55-5.27 5.04 0.05 16.63-1.03 13.64-8.7-4.9-11.27-11.08-23.35-20.65-31.31-6.16 2.85-15.38 5.75-16.01 13.65-1.91-2.99-3.98-5.88-5.84-8.9-3.03-8.01-6.88-15.74-9.16-24.01z"/>
<path id="path46-2" fill="#d9e8c5" d="m709.88 772.86c0.63-7.9 9.85-10.8 16.01-13.65 9.57 7.96 15.75 20.04 20.65 31.31 2.99 7.67-8.6 8.75-13.64 8.7-1.95-0.75-3.89-1.5-5.81-2.3-7.75-6.38-12.49-15.4-17.21-24.06z"/>
<path id="path4" fill="#498c3b" d="m651.95 63.99c-1.19-29.27 22.06-58.69 52.12-60 24.49-1.1 42.47 23.99 41.4 46.78-4.37 63.52-82.28 99.16-73.08 165.86 3.51 22.66 29.81 38.3 51.03 27.8 14.36-4.98 35-15.52 46.62-0.41 10.73 29.56-10.09 57.44-16.4 85.62-6.18 27.19-11.76 60.13 7 83.71 20.03 16.6 48.78 10.03 71.72 4.03 51.83-15 98.89-43.16 151.12-56.9 37.92-10.21 87.52 18.54 83.32 61.07-7.6 35.76-49 47.35-80.78 50.63-4.45-0.67 0.81-2.1 3.49-1.77 25.09-4.92 51.49-17.03 65.39-39.46 9.2-15.46 1.3-34.8-13-43.86-33.6-21.34-77.32-19.06-112.98-4.14-39.17 16.82-75.72 39.53-115.92 54.05-26.95 8.64-53 19.83-79.97 28.33 12.34 2.03 26.64-0.65 39.78-1.4 13.54-0.12 27.02-1.56 40.59-1 39.13 3.73 78.44 5.03 117.52 9.09 3.81 1.74-3.86 0.93-5.9 1.02-22.61-0.09-45.16-1.89-67.76-2.29-4.51-0.37-9.31-1.93-13.63 0-50.71 1.69-110.22 4.65-146.33 45.55-15 15.6-13.96 40.41-2.31 57.69 25 39.1 63.68 66.31 99.98 94.05 28.35 22.4 52.33 53.68 56.54 90.53 5.2 37.16-16.05 77.94-52.18 90.73-28.59 11.3-61.27 1.47-84.2-17.44-24.86-21.04-45.44-48.78-53.15-80.84-10.86-41.14-10.08-84.69-23.85-125.15-8.89-29-34.88-53.02-65.8-54.61-22.39 4.66-40.92 22.24-50.52 42.53-16.89 46.15-1.48 102.28-34.18 142.84-20.31 28.12-71.1 26.15-85.49-6.78-10.35-16.71-7.77-38.46 3.8-53.91 19.61-26.49 45.59-49.27 56.99-81.06 3.79-11.02 4.96-27.41-7.91-32.91-18.73-8.91-39.32-0.41-57.15 6.9-25.44 9.68-50.96 20.65-78.44 22.59-15.61 2.7-32.16-5.85-36.78-21.24-25.61 8.05-49.34 22.65-72.61 36.25-0.06-0.49-0.18-1.48-0.24-1.98 27.98-16.5 55.29-34.45 85.16-47.49 16.61-6.35 33.3-12.68 49.43-20.18-5.46-3.96-14.18-0.87-20.75-2.56-65.89-0.56-131.31-9.1-196.41-18.51-35.72-3.03-76.32 4.12-100.99 32.49-20.63 21.8-22.52 59.15-2.32 81.83 20.3 23.26 52.95 29.28 82.29 27.59-38.06 14.11-82.37-5.95-97.37-43.5-12.27-33.31 3.56-76.35 37.13-90.19 15.71-7.15 32.66-12.36 49.98-12.99 4.69 0.02 9.38 0.15 14.07 0.04 62.52 2.53 127.65 28.39 189.03 5.09 10.44-8.1-5.94-19.62-13.15-22.05-17.57-10.2-41.8-6.27-56-22-9.66-14.19-1.9-31.39-1.89-46.82-2.28-22.99-24.25-38.88-45.62-42.76-35.27-3.4-69.37 9.32-104.38 10.54-6.99-0.1-13.97-0.02-20.96-0.02-30.86-0.63-59.12-33.22-47.93-63.94 8.91-28.32 45.38-36.37 70.04-24.21 45.01 19.23 83.34 56.22 133.88 61.04 26.1 5.06 60.44-11.88 56.82-42.65-4.25-26.39-35-32.35-52.9-47.19-20.02-13.82-22.76-44.39-7.91-62.97 14.38-20.71 48.14-21.45 64.28-2.39 22.51 24.35 33.2 59.92 64.7 75.31 33.29 13.41 72.22-30.1 52.03-61.06-30.86-40.1-70.38-72.83-99.7-114.3-15.34-23.37-29.81-52.93-18.71-80.99 13.66-30.48 54.1-36.35 82.49-24.79 21.25 7.64 37.44 24.94 46.84 45.12 25.52 45.78 31.59 99.45 55 145.99 17.95 17.43 50.84 31.83 72.81 12.82 17.23-17.11 20.95-42.48 23.5-65.54 0.38-8.14 2.16-16.65-0.01-24.66-4.08-14.29 7.43-31.92 23.37-28.63 19.07 4.83 27.85 27.05 24.35 45.01-2 13.86-10.41 26.06-11 40.24-1.5 5.29 1.78 12.08 7.65 12.4 20.33 1.73 43.48-9.25 50.33-29.58 13.56-36.58 2.82-76.17 4.97-114.04m40.11-48.1c-1.65-0.07-3.15 0.65-4.54 1.42-0.45 0-1.33 0.01-1.77 0.01-3.23-1.39-2.5 2.66-1.97 4.48-20.01 15.16-27.47 42.02-25.79 66.21-1.26 35.51-1.53 71.12-6.74 106.37 0.02 1.42-1.13 4.26 1.4 3.44 6.97-13.33 15.79-26.01 21.11-40.04 0.96-1.4 1.75-2.91 2.51-4.43 14.27-25.59 37.07-46.37 46.63-74.49 12-21.62 0.84-69.3-30.84-62.97m-385.48 16.49c-21.9 1.86-38.39 23.53-34.54 45.29 4.05 34.96 31.43 60.69 55.19 84.1 44.65 38.39 85.48 82.79 122.67 127.12-14.41-52.18-26.27-105.17-32.81-159-7.44-52.48-54.88-102.63-110.51-97.51m304.38 237.62c-16.41 0.06-24.67 21.82-42.18 13.4-14.31-6.44-26.77-17.99-42.82-20.49-24.36 0.18-48.56 12.31-63.2 31.85-9.19 10.91-19.02 25.24-34.97 25.09-41.18 0.67-84.84-12.22-124.06 5.87-11.75 5.01-19.96 19.55-13.19 31.71 9.39 21.78 29.31 36.74 48.48 49.56 17.35 8.48 39.99 17.2 42.86 39.23 0.16 18.53-9.26 48.68 16.09 53.81 7.32 16.8 16.14 35.8 34.89 42.1 38.7 11.66 75.23-17.85 113.83-8.88 15.6 3.62 32.02 13.01 47.58 3.16 20.05 20.19 31.45 51.68 44.88 75.4 0.84 3.08 1.89 6.11 3.03 9.09 4.56 29.48 12.87 58.6 16.5 88.37 4.57 22.23 7.14 47.12 18.5 66.59 1.6 3.18 1.25 8.48 4.92 10.11 3.2 10.2 10.15 18.96 17.08 26.88 24.87 34.3 79.6 52.99 115.89 25.24 29.15-22.04 35.43-63.96 22.1-96.44-0.91-0.72-1.38-0.21-1.4 1.53-2.13-4.06-2.72-10.35-5.97-12.88-17.57-38.62-53.99-64.14-85.86-90.21-10.52-11.26-23.52-20.22-35.08-30.21-9.72-10.33-21.46-19.14-31.97-28.85-7.53-9.13-17.75-15.88-25.31-25.11-4.1-7.03-13.73-12.08-17.32-20.28-2.56-6.77-10.11-11.28-12.89-17.41 16.79-12.97 41.63-14.91 54.59-33.31 5.88-9.58 11.2-19.76 14.27-30.62 12.62-24.27 35.05-42.82 44.15-68.97 6.23-18.43-10.56-32.72-24.39-41.34-31.6-13.27-16.92-57.84-39.5-78.48-18.45-11.69-40.59 0.58-59.53 4.49m-594.98 72.98c-12.33 15.47-6 41.15 11.27 49.85 3.99 2.53 8.31 4.46 12.6 6.43 26.32 9.52 54.49-0.89 81.26-3.3 9.94-1.68 19.92-3.16 29.97-4.13 9.92-0.75 20.15-1.52 30.22-2.13 1.49-0.18 4.48-0.53 5.97-0.7 3.12 0.48 13.71 0.1 7.43-2.77-26.17-8.86-51.15-20.84-74.77-35.16-16.78-10.03-33.49-21.34-53.08-24.91-18.12-3.67-39.32 1.78-50.87 16.82m457.23 281.17c-1.84 3.04-4.84 5.6-5.83 9.02-17.84 21.73-38.65 41.71-53.3 65.86-20.4 26.04-0.41 75.57 34.96 70.1 3.96-0.01 7.97-0.29 11.82-1.27 3.9 1.37 12.45-1.27 7.24-5.84 23.8-12.54 35.05-41.27 30.99-67.13-4.49-37.51-2.2-75.65-0.09-112.91-8.96 13.52-18.88 27.44-25.79 42.17z"/>
<path id="path6" fill="#50953b" d="m692.06 15.89c31.68-6.33 42.84 41.35 30.84 62.97 8.29-22.95 0.64-65.14-30.84-62.97z"/>
<path id="path8" fill="#5aa23a" d="m687.52 17.31c1.39-0.77 2.89-1.49 4.54-1.42 31.48-2.17 39.13 40.02 30.84 62.97-9.56 28.12-32.36 48.9-46.63 74.49-1.22 0.01-2.63 0.18-2.56-1.46 14.06-23.61 31.3-45.48 42.39-70.76 3.86-5.51 3.92-12.69 5.24-19.07 3.32-20.6-11.68-44.38-33.82-44.75z"/>
<path id="path10" fill="#4e933b" d="m683.78 21.8c-0.53-1.82-1.26-5.87 1.97-4.48 5 2.92 15.13 1.29 17.03 7.93-10.16 0.83-24.79-3.01-27.71 10.89-0.76 2.09-1.74 4.1-2.9 6-9.13 17.06-7.3 38.05-8.98 56.9-0.01 3.1 0.04 6.23-1.01 9.19-1.61 9.11-2.23 18.37-3.4 27.56-0.44 3.7-0.83 7.4-1.16 11.12 1.87 5.14-3.44 17.02 1.05 19.94 16.5-39.03 40.67-73.92 60.39-110.96 2.51 8.61-1.55 16.88-2.96 25.24-11.09 25.28-28.33 47.15-42.39 70.76-3.02 6.52-9.69 13.03-9.12 20.35 3.13-4.77 5.48-10.06 9.17-14.46-5.32 14.03-14.14 26.71-21.11 40.04-2.53 0.82-1.38-2.02-1.4-3.44 5.21-35.25 5.48-70.86 6.74-106.37-1.68-24.19 5.78-51.05 25.79-66.21z"/>
<path id="path12" fill="#53983b" d="m685.75 17.32c0.44 0 1.32-0.01 1.77-0.01 22.14 0.37 37.14 24.15 33.82 44.75-0.37-7.55-1.5-18.51-5.92-22.91 3.32 21.46-19.16 33.08-24.53 51.71-11.24 19.71-20.7 40.45-30.12 61.1-3.09 0.46-2.87-2.97-3.15-5.05 0.33-3.72 0.72-7.42 1.16-11.12 1.92 2.29-1.34 9.73 1.51 8.41 8.63-21.58 18.59-42.63 28.15-63.79 4.05-16.62 26.54-24.82 23.48-43.82-0.47-7.53-9.72-4.84-14.87-6.61-1.64-1.19-3.32-2.32-5.14-3.17-7.14-2.64-12.9 4.27-16.84 9.33 2.92-13.9 17.55-10.06 27.71-10.89-1.9-6.64-12.03-5.01-17.03-7.93z"/>
<path id="path14" fill="#5ea53a" d="m675.07 36.14c3.94-5.06 9.7-11.97 16.84-9.33 2.4 3.19 9.09 6.3 6.13 11.13-12.52 24.21-20.73 50.28-30.61 75.59-6.09 1.48-2.46-10.02-3.36-14.17 1.46-19.2 1.87-38.77 8.1-57.22 1.16-1.9 2.14-3.91 2.9-6z"/>
<path id="path16" fill="#599f3a" d="m691.91 26.81c1.82 0.85 3.5 1.98 5.14 3.17 6.94 3.73 12.64 10.67 2.92 15.06-20.26 24.57-23.44 58.64-37.69 86.5-3.5-3.7 0.6-16.44-0.1-23.31 1.05-2.96 1-6.09 1.01-9.19l0.88 0.32c0.9 4.15-2.73 15.65 3.36 14.17 9.88-25.31 18.09-51.38 30.61-75.59 2.96-4.83-3.73-7.94-6.13-11.13z"/>
<path id="path18" fill="#559b3b" d="m697.05 29.98c5.15 1.77 14.4-0.92 14.87 6.61 3.06 19-19.43 27.2-23.48 43.82-9.56 21.16-19.52 42.21-28.15 63.79-2.85 1.32 0.41-6.12-1.51-8.41 1.17-9.19 1.79-18.45 3.4-27.56 0.7 6.87-3.4 19.61 0.1 23.31 14.25-27.86 17.43-61.93 37.69-86.5 9.72-4.39 4.02-11.33-2.92-15.06z"/>
<path id="path20" fill="#3f8f36" d="m306.58 32.38c55.63-5.12 103.07 45.03 110.51 97.51 6.54 53.83 18.4 106.82 32.81 159-37.19-44.33-78.02-88.73-122.67-127.12-23.76-23.41-51.14-49.14-55.19-84.1-3.85-21.76 12.64-43.43 34.54-45.29m8.04 4.99c-26.73 1.59-38.85 33.65-31.48 56.49 12.06 38.58 46.54 62.8 74.25 89.75 32.34 28.38 60.27 61.71 86.77 95.11-15.06-34.03-20.95-71.44-28.1-107.79-5.04-26.48-5.04-54.65-18.07-78.92-15.59-30.46-47.43-57.5-83.37-54.64z"/>
<path id="path22" fill="#419438" d="m314.62 37.37c35.94-2.86 67.78 24.18 83.37 54.64 13.03 24.27 13.03 52.44 18.07 78.92 7.15 36.35 13.04 73.76 28.1 107.79-26.5-33.4-54.43-66.73-86.77-95.11-27.71-26.95-62.19-51.17-74.25-89.75-7.37-22.84 4.75-54.9 31.48-56.49m-20.62 22.78c-0.64 1.45-1.02 3.05-0.86 4.65-3.97 5.46-4.13 14.75-2.26 20.18 0.37 3.53 1.78 9.22 4.19 10.77 2.74 8.99 8.58 17.51 14.85 24.39 0.46 2.35 2.31 4.11 4.44 5.05 0.1 2.69 3.05 6.69 5.58 8.75 2.02 2.28 3.5 5.14 5.89 7.03 1.31 1.68 2.35 3.69 4.06 5 1.04 1.7 2.4 3.38 4.34 4.07 0.94 2.64 3.29 5.9 5.63 7.03 0.48 0.87 1.16 1.55 2.03 2.03 1.8 2.34 3.82 4.79 6.57 6 3.11 5.68 10.55 10.85 15.5 15.89 3.76 4.88 8.44 8.96 12.99 13.08 16.23 20.07 35.05 38.8 49.76 60.31 3.75 4.75 6.49 10.99 11.44 14.38-1.8-5.57-5.13-11.73-9.25-15.47-0.62-1.09-1.34-2.13-2.06-3.14-10.13-41.07-20.09-82.5-25.3-124.67-4.47-37.26-29.99-73.01-67.31-82.69-14.82-5.08-35.41 1.44-40.23 17.36z"/>
<path id="path24" fill="#50963b" d="m715.42 39.15c4.42 4.4 5.55 15.36 5.92 22.91-1.32 6.38-1.38 13.56-5.24 19.07 1.41-8.36 5.47-16.63 2.96-25.24-19.72 37.04-43.89 71.93-60.39 110.96-4.49-2.92 0.82-14.8-1.05-19.94 0.28 2.08 0.06 5.51 3.15 5.05 9.42-20.65 18.88-41.39 30.12-61.1 5.37-18.63 27.85-30.25 24.53-51.71z"/>
<path id="path26" fill="#429739" d="m294 60.15c4.82-15.92 25.41-22.44 40.23-17.36 37.32 9.68 62.84 45.43 67.31 82.69 5.21 42.17 15.17 83.6 25.3 124.67-0.73-1.01-1.44-2.03-2.12-3.06-17.54-42.1-21.51-88.2-30.16-132.65-5.97-28.87-25.06-56.01-53.18-66.75-15.28-7.45-33.18-3.36-43.98 9.41-1.18 0.97-2.3 1.99-3.4 3.05z"/>
<path id="path28" fill="#559c3b" d="m663.19 99.04c1.68-18.85-0.15-39.84 8.98-56.9-6.23 18.45-6.64 38.02-8.1 57.22l-0.88-0.32z"/>
<path id="path30" fill="#449a39" d="m297.4 57.1c10.8-12.77 28.7-16.86 43.98-9.41 28.12 10.74 47.21 37.88 53.18 66.75 8.65 44.45 12.62 90.55 30.16 132.65-5.44-6.92-10.23-14.35-15.93-21.06 0.02-2.87 1.33-3.09 3.41-1.36-5.39-23.07-12.35-45.86-15.43-69.44-5.57-32.45-8.21-69.89-35.61-92.39-16.16-15.19-44.64-24.49-61.5-5.57-0.57-0.05-1.7-0.13-2.26-0.17z"/>
<path id="path32" fill="#469d3a" d="m299.66 57.27c16.86-18.92 45.34-9.62 61.5 5.57 27.4 22.5 30.04 59.94 35.61 92.39 3.08 23.58 10.04 46.37 15.43 69.44-2.08-1.73-3.39-1.51-3.41 1.36-7.8-9.17-14.27-19.53-22.95-27.89-1.46-1.66-2.77-3.44-4-5.27 0.18-1.25 0.38-2.5 0.63-3.73 8.52 6.9 13.51 17.7 22.7 23.56-15.2-43.5-11.68-92.35-33.18-133.66-13.85-21.07-48.13-43.48-69.52-20.86-0.94-0.3-1.88-0.61-2.81-0.91z"/>
<path id="path34" fill="#48a03b" d="m302.47 58.18c21.39-22.62 55.67-0.21 69.52 20.86 21.5 41.31 17.98 90.16 33.18 133.66-9.19-5.86-14.18-16.66-22.7-23.56-0.25 1.23-0.45 2.48-0.63 3.73-3.58-4.29-6.23-9.5-10.91-12.75-2.29-2.57-4.41-5.26-6.36-8.08 0.35-0.92 0.74-1.83 1.17-2.73 12.82 6.49 19.19 21.86 30.95 28.88-12.08-37.31-11.66-77.73-26.8-114.07-10.15-21.32-38.94-42.58-61.97-29.2-1.83 0.99-3.11 4.42-5.45 3.26z"/>
<path id="path36" fill="#4aa33c" d="m307.92 54.92c23.03-13.38 51.82 7.88 61.97 29.2 15.14 36.34 14.72 76.76 26.8 114.07-11.76-7.02-18.13-22.39-30.95-28.88-0.43 0.9-0.82 1.81-1.17 2.73-3.01-3.77-5.61-7.93-9.35-11.04-1.39-1.46-2.48-3.15-3.16-5.05-0.71-2.34-1.41-4.68-2.05-7.03 12.23 13.41 25.98 26.86 39.99 37.97-10.82-34.36-10.25-71.72-25.01-104.87-9.46-20.32-34.92-36.4-57.07-27.1z"/>
<path id="path38" fill="#4da63c" d="m307.92 54.92c22.15-9.3 47.61 6.78 57.07 27.1 14.76 33.15 14.19 70.51 25.01 104.87-14.01-11.11-27.76-24.56-39.99-37.97 0.64 2.35 1.34 4.69 2.05 7.03-0.51-0.25-1.52-0.76-2.03-1.01-0.29-0.97-0.6-1.93-0.91-2.88-2.41-7.93-6.22-15.3-9.46-22.89 3.53-5.41 4.28 4.69 6.36 6.84 5.5 18.26 24.17 28.33 36.89 39.62-8.16-30.91-9.08-63.98-21.93-93.6-8.49-21.64-37.87-37.28-58.18-21.88-4.32-2.44-8.5 0-8.89 4.89l-0.77-0.24c-0.16-1.6 0.22-3.2 0.86-4.65 1.1-1.06 2.22-2.08 3.4-3.05 0.56 0.04 1.69 0.12 2.26 0.17 0.93 0.3 1.87 0.61 2.81 0.91 2.34 1.16 3.62-2.27 5.45-3.26z"/>
<path id="path40" fill="#4ea93e" d="m302.8 60.15c20.31-15.4 49.69 0.24 58.18 21.88 12.85 29.62 13.77 62.69 21.93 93.6-12.72-11.29-31.39-21.36-36.89-39.62-2.08-2.15-2.83-12.25-6.36-6.84-11.4-23.34-18.41-50.05-36.86-69.02z"/>
<path id="path42" fill="#5fad3c" d="m293.91 65.04c0.39-4.89 4.57-7.33 8.89-4.89 18.45 18.97 25.46 45.68 36.86 69.02 3.24 7.59 7.05 14.96 9.46 22.89-1-0.7-2.02-1.37-3.02-2.05-0.72-1.58-1.41-3.17-2.08-4.77-4.37-10.53-8.36-21.31-14.03-31.22-1.44-3.77-1.65-8.37-5-11.05-5.55-12.83-9.86-28.06-21.68-36.62-11.63-2.06-12.17 16.27-8.36 23.96 0.05 0.7 0.15 2.09 0.2 2.79-0.02 0.66-0.06 1.99-0.08 2.65-2.41-1.55-3.82-7.24-4.19-10.77-0.6-6.91 1.54-13.36 3.03-19.94z"/>
<path id="path44" fill="#55a538" d="m290.88 84.98c-1.87-5.43-1.71-14.72 2.26-20.18l0.77 0.24c-1.49 6.58-3.63 13.03-3.03 19.94z"/>
<path id="path46" fill="#6fb74c" d="m294.95 90.31c-3.81-7.69-3.27-26.02 8.36-23.96 11.82 8.56 16.13 23.79 21.68 36.62-2.56-3.76-3.8-8.47-7.25-11.56-0.17-0.56-0.5-1.68-0.67-2.24-1.22-4.94-3.82-9.32-7.01-13.23-3.47-11.2-16.91-8.82-15.07 3.41-0.12 3.65-0.03 7.31-0.04 10.96z"/>
<path id="path48" fill="#7abb59" d="m294.99 79.35c-1.84-12.23 11.6-14.61 15.07-3.41-5.16-8.67-13.63-5.96-15.07 3.41z"/>
<path id="path50" fill="#85bf64" d="m294.99 79.35c1.44-9.37 9.91-12.08 15.07-3.41 3.19 3.91 5.79 8.29 7.01 13.23-1.13-1.87-2.52-3.55-3.89-5.24-4.61-16.64-21.16-9.47-17.29 5.92-0.01 0.67-0.04 2.01-0.05 2.67l-0.69 0.58c-0.05-0.7-0.15-2.09-0.2-2.79 0.01-3.65-0.08-7.31 0.04-10.96z"/>
<path id="path52" fill="#94c675" d="m295.89 89.85c-3.87-15.39 12.68-22.56 17.29-5.92-2.05-2.09-4.1-4.16-6.14-6.23-2.84-5.43-9.29-1.55-9.13 3.55-0.6 2.87-0.82 5.8-1.14 8.71l-0.88-0.11z"/>
<path id="path54" fill="#9fcb81" d="m297.91 81.25c-0.16-5.1 6.29-8.98 9.13-3.55-3.84-1.48-7.26-0.08-9.13 3.55z"/>
<path id="path56" fill="#abd08d" d="m297.91 81.25c1.87-3.63 5.29-5.03 9.13-3.55 2.04 2.07 4.09 4.14 6.14 6.23 0.57 2.03 1.07 4.09 1.61 6.13-3.8-3.83-6.09-11.14-12.39-10.99-4.68 3.14-3.71 10.02-2.7 14.75 0.93 2.27 2.16 4.41 3.08 6.69 0.06 0.62 0.19 1.85 0.26 2.47-2.85-3.94-5.15-8.27-6.27-13.02 0.32-2.91 0.54-5.84 1.14-8.71z"/>
<path id="path58" fill="#bfdaa1" d="m302.4 79.07c6.3-0.15 8.59 7.16 12.39 10.99 0.83 2.34 1.44 4.74 2.19 7.11-1.01-1.07-2.03-2.13-3.02-3.21-0.87-2.56-2.16-4.95-3.76-7.13-2.32-8.29-13.35-3.95-10.19 4.46-0.07 0.63-0.23 1.9-0.31 2.53-1.01-4.73-1.98-11.61 2.7-14.75z"/>
<path id="path60" fill="#cde1af" d="m300.01 91.29c-3.16-8.41 7.87-12.75 10.19-4.46-4.52-4.93-9.8-1.55-10.19 4.46z"/>
<path id="path62" fill="#dbe8be" d="m300.01 91.29c0.39-6.01 5.67-9.39 10.19-4.46 1.6 2.18 2.89 4.57 3.76 7.13-5.7-8.33-15.75-4.31-11.18 6.55-0.92-2.28-2.15-4.42-3.08-6.69 0.08-0.63 0.24-1.9 0.31-2.53z"/>
<path id="path64" fill="#96c777" d="m313.18 83.93c1.37 1.69 2.76 3.37 3.89 5.24 0.17 0.56 0.5 1.68 0.67 2.24 0.12 0.57 0.37 1.72 0.49 2.29-1.24-1.12-2.42-2.32-3.44-3.64-0.54-2.04-1.04-4.1-1.61-6.13z"/>
<path id="path66" fill="#e5efd6" d="m302.78 100.51c-4.57-10.86 5.48-14.88 11.18-6.55 0.99 1.08 2.01 2.14 3.02 3.21l0.35 0.69c-1.25 5.68-7.53 7.03-12.28 8.65-0.67-1.18-1.34-2.36-2.01-3.53-0.07-0.62-0.2-1.85-0.26-2.47z"/>
<path id="path68" fill="#89c269" d="m295.89 89.85l0.88 0.11c1.12 4.75 3.42 9.08 6.27 13.02 0.67 1.17 1.34 2.35 2.01 3.53l0.04 2.36c-4.23-4.71-6.46-10.76-9.25-16.35 0.01-0.66 0.04-2 0.05-2.67z"/>
<path id="path70" fill="#aad08c" d="m314.79 90.06c1.02 1.32 2.2 2.52 3.44 3.64 2.01 5.3 4.55 10.39 6.61 15.68 0.09 0.59 0.28 1.78 0.37 2.37-1.21-1.14-2.36-2.37-3.07-3.89-1.46-3.4-3.01-6.76-4.81-10l-0.35-0.69c-0.75-2.37-1.36-4.77-2.19-7.11z"/>
<path id="path72" fill="#89c269" d="m317.74 91.41c3.45 3.09 4.69 7.8 7.25 11.56 1.05 3.94 2.78 7.63 5 11.05 2.56 8.19 6.38 15.89 9.23 23.98-1.45-1.94-2.9-3.89-4.08-6-1.13-2.76-2.63-5.33-4.18-7.87l-0.96-2.94c-1.62-3.93-1.51-9.07-5.16-11.81-2.06-5.29-4.6-10.38-6.61-15.68-0.12-0.57-0.37-1.72-0.49-2.29z"/>
<path id="path74" fill="#5fac3f" d="m295.15 93.1l0.69-0.58c2.79 5.59 5.02 11.64 9.25 16.35 1.27 2.8 2.59 5.58 4.03 8.31 0.26 0.98 0.53 1.97 0.8 2.96-6.27-6.88-12.11-15.4-14.85-24.39 0.02-0.66 0.06-1.99 0.08-2.65z"/>
<path id="path76" fill="#d3e5be" d="m317.33 97.86c1.8 3.24 3.35 6.6 4.81 10-0.89 5.86-7.83 8.29-13.02 9.32-1.44-2.73-2.76-5.51-4.03-8.31l-0.04-2.36c4.75-1.62 11.03-2.97 12.28-8.65z"/>
<path id="path78" fill="#71b84d" d="m324.99 102.97c3.35 2.68 3.56 7.28 5 11.05-2.22-3.42-3.95-7.11-5-11.05z"/>
<path id="path80" fill="#c1dda9" d="m322.14 107.86c0.71 1.52 1.86 2.75 3.07 3.89 0.54 1.75 1.1 3.48 1.72 5.2-0.91 5.5-7.7 7.41-12.57 8.24-2.13-0.94-3.98-2.7-4.44-5.05-0.27-0.99-0.54-1.98-0.8-2.96 5.19-1.03 12.13-3.46 13.02-9.32z"/>
<path id="path82" fill="#9fcb81" d="m324.84 109.38c3.65 2.74 3.54 7.88 5.16 11.81-1-1.42-2.07-2.81-3.07-4.24-0.62-1.72-1.18-3.45-1.72-5.2-0.09-0.59-0.28-1.78-0.37-2.37z"/>
<path id="path84" fill="#71b74d" d="m329.99 114.02c5.67 9.91 9.66 20.69 14.03 31.22-0.46-0.33-1.37-0.99-1.83-1.32-0.81-2.06-1.83-4.03-2.97-5.92-2.85-8.09-6.67-15.79-9.23-23.98z"/>
<path id="path86" fill="#b4d698" d="m326.93 116.95c1 1.43 2.07 2.82 3.07 4.24l0.96 2.94c0.92 6.32-6.84 7.2-11.02 9.81-2.53-2.06-5.48-6.06-5.58-8.75 4.87-0.83 11.66-2.74 12.57-8.24z"/>
<path id="path88" fill="#a7d089" d="m330.96 124.13c1.55 2.54 3.05 5.11 4.18 7.87-0.14 5.11-6.4 5.7-9.31 8.97-2.39-1.89-3.87-4.75-5.89-7.03 4.18-2.61 11.94-3.49 11.02-9.81z"/>
<path id="path90" fill="#9ccb7c" d="m335.14 132c1.18 2.11 2.63 4.06 4.08 6-0.24 4.94-5.82 5.82-9.33 7.97-1.71-1.31-2.75-3.32-4.06-5 2.91-3.27 9.17-3.86 9.31-8.97z"/>
<path id="path92" fill="#91c66f" d="m339.22 138c1.14 1.89 2.16 3.86 2.97 5.92-0.07 4.34-4.11 6.27-7.96 6.12-1.94-0.69-3.3-2.37-4.34-4.07 3.51-2.15 9.09-3.03 9.33-7.97z"/>
<path id="path94" opacity=".67" fill="#2c5523" d="m552.28 138.59c2.17 8.01 0.39 16.52 0.01 24.66-0.17-8.21-0.88-16.48-0.01-24.66z"/>
<path id="path96" fill="#87c163" d="m342.19 143.92c0.46 0.33 1.37 0.99 1.83 1.32 0.67 1.6 1.36 3.19 2.08 4.77-1.9 2.51-3.99 4.86-6.24 7.06-2.34-1.13-4.69-4.39-5.63-7.03 3.85 0.15 7.89-1.78 7.96-6.12z"/>
<path id="path98" fill="#7fbd58" d="m346.1 150.01c1 0.68 2.02 1.35 3.02 2.05 0.31 0.95 0.62 1.91 0.91 2.88-0.51 3.97-4.68 5.69-8.14 4.16-0.87-0.48-1.55-1.16-2.03-2.03 2.25-2.2 4.34-4.55 6.24-7.06z"/>
<path id="path100" fill="#549a3a" d="m664.59 172.24c-0.57-7.32 6.1-13.83 9.12-20.35-0.07 1.64 1.34 1.47 2.56 1.46-0.76 1.52-1.55 3.03-2.51 4.43-3.69 4.4-6.04 9.69-9.17 14.46z"/>
<path id="path102" fill="#74b84c" d="m350.03 154.94c0.51 0.25 1.52 0.76 2.03 1.01 0.68 1.9 1.77 3.59 3.16 5.05-0.73 3.25-3.76 4.27-6.76 4.1-2.75-1.21-4.77-3.66-6.57-6 3.46 1.53 7.63-0.19 8.14-4.16z"/>
<path id="path104" fill="#67b040" d="m355.22 161c3.74 3.11 6.34 7.27 9.35 11.04 1.95 2.82 4.07 5.51 6.36 8.08 4.85 8.06-2.27 5.18-6.97 0.87-4.95-5.04-12.39-10.21-15.5-15.89 3 0.17 6.03-0.85 6.76-4.1z"/>
<path id="path106" fill="#5ba63b" d="m370.93 180.12c4.68 3.25 7.33 8.46 10.91 12.75 1.23 1.83 2.54 3.61 4 5.27 9.18 13.36-2.93 1.29-8.89-4.07-4.55-4.12-9.23-8.2-12.99-13.08 4.7 4.31 11.82 7.19 6.97-0.87z"/>
<path id="path108" fill="#4f9c37" d="m376.95 194.07c5.96 5.36 18.07 17.43 8.89 4.07 8.68 8.36 15.15 18.72 22.95 27.89 5.7 6.71 10.49 14.14 15.93 21.06 0.68 1.03 1.39 2.05 2.12 3.06 0.72 1.01 1.44 2.05 2.06 3.14 0.48 1.86-0.99 1.37-2.19 1.09-14.71-21.51-33.53-40.24-49.76-60.31z"/>
<path id="path110" fill="#489737" d="m428.9 253.29c4.12 3.74 7.45 9.9 9.25 15.47-4.95-3.39-7.69-9.63-11.44-14.38 1.2 0.28 2.67 0.77 2.19-1.09z"/>
<path id="path112" fill="#49903b" d="m610.96 270c18.94-3.91 41.08-16.18 59.53-4.49 22.58 20.64 7.9 65.21 39.5 78.48 13.83 8.62 30.62 22.91 24.39 41.34-9.1 26.15-31.53 44.7-44.15 68.97-3.07 10.86-8.39 21.04-14.27 30.62-12.96 18.4-37.8 20.34-54.59 33.31 2.78 6.13 10.33 10.64 12.89 17.41-0.91 0.12-1.8 0.26-2.68 0.44-1.92-2.95-4.25-5.66-7.53-7.11-3.26-4.54-6.96-8.77-10.99-12.64 18.29-12.55 43.76-18.48 59.66-35.61 10.3-13.06 10.68-30.93 21.3-43.74 11.13-18.84 29.09-35.05 32.83-57.43 0.39-19.68-19.58-30.62-34.81-38.49-18.01-18.7-13-49.04-29.69-68.4-18.96-12.59-41.08 1.01-60.66 5.08-12.33 1.51-18.67 17.34-32.38 13.13-18.53-3.43-32.66-22.13-52.99-19.79-18.84 2.8-37.29 11.88-49.05 27.2-9.57 10.12-17.26 26.17-32.9 27.34-40.27 3.3-83.24-11.44-121.39 7.31-11.24 4.34-16.56 18.34-11.02 29 8.18 16.86 23.18 29.2 38.01 40.12 15.87 11.51 38.43 14.85 48.81 33.06 9.55 15.72-1 34.86 5.85 51.21 2.89 7.02 11.69 6.94 16.38 11.73 6.88 17.06 18.39 35.77 38.19 38.78 36.95 7.76 70.72-20.99 107.71-9.85 11.7 7.39 30.52 4.05 40.01 7.26-4.03-8.64 11.33-7.3 11.36-15.4 7.5 21.44 17.98 41.98 22.57 64.34-7.29-7.75-10.05-18.99-17.97-26.12 9.43 17.81 20.72 35.15 26.27 54.75-13.43-23.72-24.83-55.21-44.88-75.4-15.56 9.85-31.98 0.46-47.58-3.16-38.6-8.97-75.13 20.54-113.83 8.88-18.75-6.3-27.57-25.3-34.89-42.1-25.35-5.13-15.93-35.28-16.09-53.81-2.87-22.03-25.51-30.75-42.86-39.23-19.17-12.82-39.09-27.78-48.48-49.56-6.77-12.16 1.44-26.7 13.19-31.71 39.22-18.09 82.88-5.2 124.06-5.87 15.95 0.15 25.78-14.18 34.97-25.09 14.64-19.54 38.84-31.67 63.2-31.85 16.05 2.5 28.51 14.05 42.82 20.49 17.51 8.42 25.77-13.34 42.18-13.4z"/>
<path id="path114" fill="#49933b" d="m601.69 277.74c19.58-4.07 41.7-17.67 60.66-5.08 16.69 19.36 11.68 49.7 29.69 68.4 15.23 7.87 35.2 18.81 34.81 38.49-3.74 22.38-21.7 38.59-32.83 57.43-10.62 12.81-11 30.68-21.3 43.74-15.9 17.13-41.37 23.06-59.66 35.61-1.03-1.01-2-2.06-2.95-3.12 22.66-17.63 60.49-22.14 68.87-54.24 5.61-26.72 27.98-45.41 37.75-70.34 6-12.88-1.84-27.45-13.11-34.25-9.69-8.33-25.33-10-28.53-24.49-10.28-17.87-7.89-46.98-29.94-55.34-21.32-0.27-45.83 4.49-63.14 17.35-1.73 1.35-3.48 2.69-5.25 3.99-25.98 7.28-44.05-26.6-70.58-15.75-28.36 4.58-40.36 32.48-60.19 48.87-40.49 9.7-84.85-10.12-123.71 10.23-10.43 4.44-15.63 17.64-9.33 27.59 14.07 24.67 39.51 40.35 65.01 51.2 13.39 5.88 25.7 18.35 25.6 33.77-0.2 11.94-3.14 28.72 7.51 37.23 15.53 2.01 15.48 21.22 26.24 29.64 17.75 19.34 47.21 13.96 69.73 7.4 22.41-9.54 48.49-10.12 71.11-0.9 9.41 1.97 24.51 0.55 29.04-9.44 0.35 1.03 0.71 2.07 1.09 3.11-0.03 8.1-15.39 6.76-11.36 15.4-9.49-3.21-28.31 0.13-40.01-7.26-36.99-11.14-70.76 17.61-107.71 9.85-19.8-3.01-31.31-21.72-38.19-38.78-4.69-4.79-13.49-4.71-16.38-11.73-6.85-16.35 3.7-35.49-5.85-51.21-10.38-18.21-32.94-21.55-48.81-33.06-14.83-10.92-29.83-23.26-38.01-40.12-5.54-10.66-0.22-24.66 11.02-29 38.15-18.75 81.12-4.01 121.39-7.31 15.64-1.17 23.33-17.22 32.9-27.34 11.76-15.32 30.21-24.4 49.05-27.2 20.33-2.34 34.46 16.36 52.99 19.79 13.71 4.21 20.05-11.62 32.38-13.13z"/>
<path id="path116" fill="#49973b" d="m582.01 291.9c17.31-12.86 41.82-17.62 63.14-17.35 22.05 8.36 19.66 37.47 29.94 55.34 3.2 14.49 18.84 16.16 28.53 24.49 11.27 6.8 19.11 21.37 13.11 34.25-9.77 24.93-32.14 43.62-37.75 70.34-8.38 32.1-46.21 36.61-68.87 54.24-0.7-0.78-1.39-1.55-2.06-2.32 16.02-8.36 30.39-21.22 47.82-27.99 21.9-9.82 19.6-36.63 31.06-53.99 8.82-17.63 26.05-33.34 23.95-54.56-4.12-16.34-21.23-23.47-34.83-30.34-17.03-16.66-15.12-44.39-32.27-60.8-19.98-10.97-41.99 4.48-61.77 8.69z"/>
<path id="path118" fill="#49973b" d="m506.18 280.14c26.53-10.85 44.6 23.03 70.58 15.75-0.16 0.54-0.48 1.61-0.64 2.15-13.68 10.3-29.54-1.82-42.2-7.88-20.47-11.37-45.9-0.81-60.72 15.05-9.85 10.03-14.91 26.57-29.77 30.31-36.51 5.53-75.56-8.2-110.3 8.6-12.49 3.76-16.47 19.58-8.88 29.63 15.39 21.93 39.08 36.64 63.72 46.26 14.41 5.63 26.96 19.83 25 36.14-0.3 13.26 1.46 31.21 17.31 33.5 9.07 12.29 16.84 27.74 31.87 34.36 18.95 6.21 38.89 0.99 57.27-4.51 19.26-8.98 41.74-6.91 61.86-1.94 7.19 4.03 16.14 2.44 23.03-1.46 0.05-1.93 0.72-7.91 3.74-5.21-0.37 1.59-0.69 3.2-0.86 4.84-4.53 9.99-19.63 11.41-29.04 9.44-22.62-9.22-48.7-8.64-71.11 0.9-22.52 6.56-51.98 11.94-69.73-7.4-10.76-8.42-10.71-27.63-26.24-29.64-10.65-8.51-7.71-25.29-7.51-37.23 0.1-15.42-12.21-27.89-25.6-33.77-25.5-10.85-50.94-26.53-65.01-51.2-6.3-9.95-1.1-23.15 9.33-27.59 38.86-20.35 83.22-0.53 123.71-10.23 19.83-16.39 31.83-44.29 60.19-48.87z"/>
<path id="path120" fill="#499a3b" d="m582.01 291.9c19.78-4.21 41.79-19.66 61.77-8.69 17.15 16.41 15.24 44.14 32.27 60.8 13.6 6.87 30.71 14 34.83 30.34 2.1 21.22-15.13 36.93-23.95 54.56-11.46 17.36-9.16 44.17-31.06 53.99-17.43 6.77-31.8 19.63-47.82 27.99-3.02-2.7-3.69 3.28-3.74 5.21-6.89 3.9-15.84 5.49-23.03 1.46-20.12-4.97-42.6-7.04-61.86 1.94-18.38 5.5-38.32 10.72-57.27 4.51-15.03-6.62-22.8-22.07-31.87-34.36-15.85-2.29-17.61-20.24-17.31-33.5 1.96-16.31-10.59-30.51-25-36.14-24.64-9.62-48.33-24.33-63.72-46.26-7.59-10.05-3.61-25.87 8.88-29.63 34.74-16.8 73.79-3.07 110.3-8.6 14.86-3.74 19.92-20.28 29.77-30.31 14.82-15.86 40.25-26.42 60.72-15.05 12.66 6.06 28.52 18.18 42.2 7.88-2.84 2.57-5.47 5.35-8.22 8-21 6.54-36.06-15.36-56.69-14-17.41 2.05-33.94 11.98-43.2 27-5.75 7.98-10.17 18.58-20.46 21.63-31.27 5.36-63.79-4.73-94.47 5.4-10.69 2.75-26.14 10.11-22.05 23.78 6.37 18.42 24.4 29.18 39.86 39.25 16.73 10.88 41.14 12.5 50.03 32.95 4.43 12.79 0.75 28.29 9.31 39.81 19.96 4.65 22.49 29.78 41.72 36.12 33.84 13.11 64.57-16.73 98.78-9.92 14.88 4.21 32.34 8.69 44.52-3.86 17.13-21.39 54.61-22.65 59.19-53.78 3.26-24.9 23.28-43.14 29.06-67.07 2.61-20.53-18.78-30.18-34.32-37.47-18.16-14.72-16.94-43.35-35.27-57.88-19.4-8.33-39.19 4.85-57.79 10.04 0.16-0.54 0.48-1.61 0.64-2.15 1.77-1.3 3.52-2.64 5.25-3.99z"/>
<path id="path122" fill="#4a9d3b" d="m576.12 298.04c18.6-5.19 38.39-18.37 57.79-10.04 18.33 14.53 17.11 43.16 35.27 57.88 15.54 7.29 36.93 16.94 34.32 37.47-5.78 23.93-25.8 42.17-29.06 67.07-4.58 31.13-42.06 32.39-59.19 53.78-12.18 12.55-29.64 8.07-44.52 3.86-34.21-6.81-64.94 23.03-98.78 9.92-19.23-6.34-21.76-31.47-41.72-36.12-8.56-11.52-4.88-27.02-9.31-39.81-8.89-20.45-33.3-22.07-50.03-32.95-15.46-10.07-33.49-20.83-39.86-39.25-4.09-13.67 11.36-21.03 22.05-23.78 30.68-10.13 63.2-0.04 94.47-5.4 10.29-3.05 14.71-13.65 20.46-21.63 9.26-15.02 25.79-24.95 43.2-27 20.63-1.36 35.69 20.54 56.69 14-0.17 0.54-0.51 1.61-0.68 2.15-1.79 1.24-3.51 2.55-5.19 3.91-19.05 5.44-33.19-13.64-51.97-13.07-15.35 1.84-30.71 9.54-39.12 22.93-6.12 8.35-9.5 20.06-20.14 23.91-33.29 6.69-69.46-6.12-100.74 11.1-11.23 4.04-11.47 19.31-4.06 27.02 15.06 17.7 35.98 29.66 57.73 37.3 11.54 4.57 24.17 11.21 28.16 23.95 2.5 10.83 1.93 22.86 8.32 32.46 4 6.19 13.99 3.82 16.87 11.29 8.72 14 22.7 26.89 40.2 26.63 24.28 1.77 44.82-15.03 68.95-13.69 16.69-1.97 35.99 12.27 50.42-2.32 15.56-21.57 53.11-23.71 55.57-54.5 1.67-24.11 22.14-42.16 23.79-66.05-1.1-18.61-21.81-24.98-35.79-32.18-17.46-14.45-17.33-43.04-37.64-54.6-19.09-4.1-37.8 5.88-54.68 13.76 2.75-2.65 5.38-5.43 8.22-8z"/>
<path id="path124" fill="#4aa03b" d="m567.9 306.04c16.88-7.88 35.59-17.86 54.68-13.76 20.31 11.56 20.18 40.15 37.64 54.6 13.98 7.2 34.69 13.57 35.79 32.18-1.65 23.89-22.12 41.94-23.79 66.05-2.46 30.79-40.01 32.93-55.57 54.5-14.43 14.59-33.73 0.35-50.42 2.32-24.13-1.34-44.67 15.46-68.95 13.69-17.5 0.26-31.48-12.63-40.2-26.63-2.88-7.47-12.87-5.1-16.87-11.29-6.39-9.6-5.82-21.63-8.32-32.46-3.99-12.74-16.62-19.38-28.16-23.95-21.75-7.64-42.67-19.6-57.73-37.3-7.41-7.71-7.17-22.98 4.06-27.02 31.28-17.22 67.45-4.41 100.74-11.1 10.64-3.85 14.02-15.56 20.14-23.91 8.41-13.39 23.77-21.09 39.12-22.93 18.78-0.57 32.92 18.51 51.97 13.07-9.41 13.7-26.25 1.6-37.61-2.45-16.47-8.24-36.21-0.97-48.11 11.67-8.13 9.09-10.48 23.28-21.77 29.3-28.56 6.23-58.88-2.68-86.74 8.19-10.94 2.28-23.16 13.94-14.74 25.02 15.77 22.5 42.85 33.29 67.88 42.23 31.29 6.57 14.14 51.63 44.8 57.18 10.77 14.71 26.15 29.51 46.08 26.81 20.09 0.5 36.84-13.61 56.73-13.59 17.34-4.06 37.76 11.93 52.2-3.8 11.2-14.2 28.59-20.51 41.96-31.89 9.67-11.17 5.54-27.62 11.88-40.24 5.1-14.21 15.03-27.49 14.27-43.21-4.16-17.54-23.34-22.44-37.46-29.64-13.82-13.1-18.15-33.15-31.65-46.43-16.7-11.87-35.74 2.25-52.53 6.94 0.17-0.54 0.51-1.61 0.68-2.15z"/>
<path id="path126" fill="#49a43a" d="m567.22 308.19c16.79-4.69 35.83-18.81 52.53-6.94 13.5 13.28 17.83 33.33 31.65 46.43 14.12 7.2 33.3 12.1 37.46 29.64 0.76 15.72-9.17 29-14.27 43.21-6.34 12.62-2.21 29.07-11.88 40.24-13.37 11.38-30.76 17.69-41.96 31.89-14.44 15.73-34.86-0.26-52.2 3.8-19.89-0.02-36.64 14.09-56.73 13.59-19.93 2.7-35.31-12.1-46.08-26.81-30.66-5.55-13.51-50.61-44.8-57.18-25.03-8.94-52.11-19.73-67.88-42.23-8.42-11.08 3.8-22.74 14.74-25.02 27.86-10.87 58.18-1.96 86.74-8.19 11.29-6.02 13.64-20.21 21.77-29.3 11.9-12.64 31.64-19.91 48.11-11.67 11.36 4.05 28.2 16.15 37.61 2.45 1.68-1.36 3.4-2.67 5.19-3.91m23.41-4.77c-12.49 4.65-27.22 7.15-35.91 18.32-12.12 7.23-24.6-3.41-36.35-6.19-18.86-7.51-41.32 5.25-48.39 23.44-3.55 8.4-8.71 18.86-19.43 18.54-28.75 5.29-66.91-5.88-88.99 18.28-1.09 23.76 28.12 33.35 45.72 42.91 15.88 6.45 36.7 8.92 44.45 26.58 4.54 9.82 4 23.55 14.11 29.95 17.06 3.71 23.59 24.5 41.34 27.74 24.4 7.18 44.89-11.03 68.17-12.73 16.3-3.33 36.16 10.1 49.37-4.57 8.13-11.85 21.16-18.35 32.69-26.24 9.76-6.77 10.14-19.89 10.01-30.59 2.34-17.94 15.23-33.54 13.5-52.22-3.52-13.21-17.82-18.61-29.17-23.42-27.13-7.99-27.53-57.16-61.12-49.8z"/>
<path id="path128" fill="#49a73a" d="m590.63 303.42c33.59-7.36 33.99 41.81 61.12 49.8 11.35 4.81 25.65 10.21 29.17 23.42 1.73 18.68-11.16 34.28-13.5 52.22 0.13 10.7-0.25 23.82-10.01 30.59-11.53 7.89-24.56 14.39-32.69 26.24-13.21 14.67-33.07 1.24-49.37 4.57-23.28 1.7-43.77 19.91-68.17 12.73-17.75-3.24-24.28-24.03-41.34-27.74-10.11-6.4-9.57-20.13-14.11-29.95-7.75-17.66-28.57-20.13-44.45-26.58-17.6-9.56-46.81-19.15-45.72-42.91 22.08-24.16 60.24-12.99 88.99-18.28 10.72 0.32 15.88-10.14 19.43-18.54 7.07-18.19 29.53-30.95 48.39-23.44 11.75 2.78 24.23 13.42 36.35 6.19 8.69-11.17 23.42-13.67 35.91-18.32z"/>
<path id="path130" fill="#409137" d="m15.98 342.98c11.55-15.04 32.75-20.49 50.87-16.82 19.59 3.57 36.3 14.88 53.08 24.91 23.62 14.32 48.6 26.3 74.77 35.16 6.28 2.87-4.31 3.25-7.43 2.77-30.55-11.77-60.6-25.95-88.04-44.25-18.51-11.38-43.07-17.13-62.76-5.2-3.74 0.47-9.03 6.58-11.59 2.6 1.91-2.06 3.37-4.48 4.27-7.13-13.27 8.42-21.35 26.57-14.34 41.51 1.94 4.27 4.18 8.57 7.97 11.5 1.46 1.63 2.91 3.26 4.47 4.8-17.27-8.7-23.6-34.38-11.27-49.85z"/>
<path id="path132" fill="#439738" d="m36.47 339.55c19.69-11.93 44.25-6.18 62.76 5.2 27.44 18.3 57.49 32.48 88.04 44.25-1.49 0.17-4.48 0.52-5.97 0.7-10.54-1.1-21.17-1.09-31.73-0.26-10.4 0.57-20.76 1.7-31.09 3.06-20.7 2.12-41.39 5.34-62.26 4.54-2.32-0.47-3.01-1.9-1.64-3.9 33.46-0.43 66.06-10.22 99.58-11.28 3.37-0.16 9.41 3.68 11.74 1.46-15.81-6.62-31.67-13.13-47.3-20.16-7.14-4.58-14.64-13.52-23.74-12.22-1.56-0.22-3.11-0.45-4.65-0.72-1.47-1.09-3.11-1.93-4.91-2.28-2.06-1.07-4.17-2.05-6.37-2.76-2.52-0.99-5.13-1.68-7.79-2.12-3.11-0.76-6.18-1.61-9.3-2.29-9.12-2.88-17.84 0.49-26 4.08-0.37 0.09-1.11 0.25-1.48 0.33-5.6 1.05-10.03 5.92-12.29 10.98-1.11-0.84-2.36-1.84-3.27-0.15 1.12-4.93 2.49-10.11 6.08-13.86 2.56 3.98 7.85-2.13 11.59-2.6z"/>
<path id="path134" fill="#5fae3c" d="m14.81 376.53c-7.01-14.94 1.07-33.09 14.34-41.51-0.9 2.65-2.36 5.07-4.27 7.13-3.59 3.75-4.96 8.93-6.08 13.86-0.75 4.91-1.03 9.99 0.03 14.88-3.28-0.09-3.88 2.99-4.02 5.64z"/>
<path id="path136" fill="#65b142" d="m35.84 344.85c8.16-3.59 16.88-6.96 26-4.08-3.96-0.01-7.95 0.17-11.81 1.12-3.69 0.54-7.15 2-10.33 3.92-5.91 1.74-2.61 7.21 2.14 7.5 13.49 2.82 27.45 2.75 41.16 3.81 1.2 0.11 2.41 0.22 3.62 0.34 1.69 0.23 3.38 0.49 5.08 0.72 1.59 0.39 3.05 1.14 4.48 1.94-19.02-1.25-38.39-1.24-57.05-5.2-6.56-0.76-7.7-6.12-3.29-10.07z"/>
<path id="path138" fill="#e2edd0" d="m50.03 341.89c3.86-0.95 7.85-1.13 11.81-1.12-0.42 4.32 0.28 10.46-5.08 11.77-3.73-1.12-9.69-2.27-8.98-7.24 0.91-1.02 1.63-2.2 2.25-3.41z"/>
<path id="path140" fill="#c8e0b0" d="m61.84 340.77c3.12 0.68 6.19 1.53 9.3 2.29 2.97 11.38-5.94 12.25-14.38 9.48 5.36-1.31 4.66-7.45 5.08-11.77z"/>
<path id="path142" fill="#89c169" d="m39.7 345.81c3.18-1.92 6.64-3.38 10.33-3.92-0.62 1.21-1.34 2.39-2.25 3.41-0.4-0.06-1.19-0.16-1.59-0.22-8.46 1.26-2.15 9.58 3.92 7.98 7.57 0.86 15.17 1.44 22.76 2.21 3.31 0.33 6.64 0.74 9.97 0.94l0.16 0.91c-13.71-1.06-27.67-0.99-41.16-3.81-2.67-1.72-3.34-4.63-2.14-7.5z"/>
<path id="path144" fill="#b3d596" d="m71.14 343.06c2.66 0.44 5.27 1.13 7.79 2.12 1.06 4.53 0.17 11.73-6.06 10.09-7.59-0.77-15.19-1.35-22.76-2.21-3.84-0.98-8.92-4.53-3.92-7.98 0.4 0.06 1.19 0.16 1.59 0.22-0.71 4.97 5.25 6.12 8.98 7.24 8.44 2.77 17.35 1.9 14.38-9.48z"/>
<path id="path146" fill="#489e3a" d="m22.07 356.16c2.26-5.06 6.69-9.93 12.29-10.98-2.48 1.51-4.61 3.52-6.27 5.9-12.09 11.24-0.78 29.97 13.08 32.82 26.6 5.29 52.95-5.02 79.52-6.27 4.38-1.45 11.9 1.86 14.27-3.53 3.31 1.07 6.55 2.42 9.99 3.06-7.97-5.81-18.47-7.77-26.35-14 15.63 7.03 31.49 13.54 47.3 20.16-2.33 2.22-8.37-1.62-11.74-1.46-33.39-7.14-67.14 8.28-100.79 7.86-17.16 0.11-38.24-14.15-31.3-33.56z"/>
<path id="path148" fill="#4fa93d" d="m34.36 345.18c0.37-0.08 1.11-0.24 1.48-0.33-4.41 3.95-3.27 9.31 3.29 10.07 18.66 3.96 38.03 3.95 57.05 5.2l0.84 0.18c5.4 1.94 10.75 4.04 16.27 5.65l-0.48 0.66c-8.44 1.15 3.56 2.7 4.27 6.62-25.07 0.64-49.75 9.66-74.82 6.63-13.39-1.83-21.72-17.21-14.17-28.78 1.66-2.38 3.79-4.39 6.27-5.9z"/>
<path id="path150" fill="#9dca7e" d="m50.11 353.06c-6.07 1.6-12.38-6.72-3.92-7.98-5 3.45 0.08 7 3.92 7.98z"/>
<path id="path152" fill="#a1cd81" d="m78.93 345.18c2.2 0.71 4.31 1.69 6.37 2.76-0.2 2.92-0.75 5.84-2.46 8.27-3.33-0.2-6.66-0.61-9.97-0.94 6.23 1.64 7.12-5.56 6.06-10.09z"/>
<path id="path154" fill="#74b951" d="m41.84 353.31c-4.75-0.29-8.05-5.76-2.14-7.5-1.2 2.87-0.53 5.78 2.14 7.5z"/>
<path id="path156" fill="#93c771" d="m85.3 347.94c1.8 0.35 3.44 1.19 4.91 2.28 0.14 2.96-0.72 5.88-3.59 7.24-1.21-0.12-2.42-0.23-3.62-0.34l-0.16-0.91c1.71-2.43 2.26-5.35 2.46-8.27z"/>
<path id="path158" fill="#85c060" d="m90.21 350.22c1.54 0.27 3.09 0.5 4.65 0.72l0.41 0.69c1.41 3.1 0.57 7.06-3.57 6.55-1.7-0.23-3.39-0.49-5.08-0.72 2.87-1.36 3.73-4.28 3.59-7.24z"/>
<path id="path160" fill="#489d3a" d="m94.86 350.94c9.1-1.3 16.6 7.64 23.74 12.22-0.37-0.04-1.12-0.13-1.5-0.17-5.17-2.29-9.79-5.65-15.02-7.8-2.26-1.21-4.55-2.36-6.81-3.56l-0.41-0.69z"/>
<path id="path162" fill="#4aa33c" d="m41.17 383.9c-13.86-2.85-25.17-21.58-13.08-32.82-7.55 11.57 0.78 26.95 14.17 28.78 25.07 3.03 49.75-5.99 74.82-6.63-0.71-3.92-12.71-5.47-4.27-6.62 7.22 2.96 14.66 5.32 22.15 7.49-2.37 5.39-9.89 2.08-14.27 3.53-26.57 1.25-52.92 11.56-79.52 6.27z"/>
<path id="path164" fill="#75b94e" d="m95.27 351.63c2.26 1.2 4.55 2.35 6.81 3.56 0.34 3.36-1.78 5.22-5.06 5.11l-0.84-0.18c-1.43-0.8-2.89-1.55-4.48-1.94 4.14 0.51 4.98-3.45 3.57-6.55z"/>
<path id="path166" fill="#459a3a" d="m18.8 356.01c0.91-1.69 2.16-0.69 3.27 0.15-6.94 19.41 14.14 33.67 31.3 33.56 33.65 0.42 67.4-15 100.79-7.86-33.52 1.06-66.12 10.85-99.58 11.28-1.37 2-0.68 3.43 1.64 3.9-4.46-0.34-8.81-1.43-13.19-2.26-4.92-2.12-9.71-4.58-14.07-7.71-4.48-4.6-8.13-10.05-10.13-16.18-1.06-4.89-0.78-9.97-0.03-14.88z"/>
<path id="path168" fill="#65af3f" d="m102.08 355.19c5.23 2.15 9.85 5.51 15.02 7.8 5.9 4.57 1.44 4.62-3.81 2.96-5.52-1.61-10.87-3.71-16.27-5.65 3.28 0.11 5.4-1.75 5.06-5.11z"/>
<path id="path170" fill="#55a33a" d="m117.1 362.99c0.38 0.04 1.13 0.13 1.5 0.17 7.88 6.23 18.38 8.19 26.35 14-3.44-0.64-6.68-1.99-9.99-3.06-7.49-2.17-14.93-4.53-22.15-7.49l0.48-0.66c5.25 1.66 9.71 1.61 3.81-2.96z"/>
<path id="path172" fill="#66b342" d="m14.81 376.53c0.14-2.65 0.74-5.73 4.02-5.64 2 6.13 5.65 11.58 10.13 16.18-2.77-1.89-8.91-4.88-6.18 0.96-3.79-2.93-6.03-7.23-7.97-11.5z"/>
<path id="path174" fill="#3f9037" d="m928.92 382.95c35.66-14.92 79.38-17.2 112.98 4.14 14.3 9.06 22.2 28.4 13 43.86-13.9 22.43-40.3 34.54-65.39 39.46-2.68-0.33-7.94 1.1-3.49 1.77-18.85 2.63-42.84 2.58-61 0.86 2.04-0.09 9.71 0.72 5.9-1.02-39.08-4.06-78.39-5.36-117.52-9.09 45.54-0.79 91.34-1.32 136.8 3.1 33.74 0.96 74.8-6.47 93.4-37.97 0.8 4.22 0 8.41-0.5 12.59 5.5-0.08 7.3-8.07 7.9-12.8 4.1-15.86-7-31.11-20.5-38.32-29-15.74-65-14.3-94.92-1.94-34.71 15.15-67.2 34.85-101.73 50.38-3.84 1.53-7.73 2.89-11.66 4.12-12.42 3.24-24.46 8.41-36.14 13.72-0.53 5.86-8.82 5.5-13.24 8.12-13.14 0.75-27.44 3.43-39.78 1.4 26.97-8.5 53.02-19.69 79.97-28.33 40.2-14.52 76.75-37.23 115.92-54.05z"/>
<path id="path176" fill="#4ca63d" d="m935.58 387.59c29.92-12.36 65.92-13.8 94.92 1.94 13.5 7.21 24.6 22.46 20.5 38.32-5.8 14.79-4 4.63-4.8-4.95-10.9-42.32-68.64-46.47-102.34-29.94-38.31 12.72-73.12 33.84-110.78 48.24-4.51-0.03-1.64-1.87 0.77-3.23 34.53-15.53 67.02-35.23 101.73-50.38z"/>
<path id="path178" fill="#6eb94b" d="m22.78 388.03c-2.73-5.84 3.41-2.85 6.18-0.96 4.36 3.13 9.15 5.59 14.07 7.71-3.61-0.8-6.46 1.43-3.18 4.48-4.29-1.97-8.61-3.9-12.6-6.43-1.56-1.54-3.01-3.17-4.47-4.8z"/>
<path id="path180" fill="#429839" d="m943.86 392.96c33.7-16.53 91.44-12.38 102.34 29.94-3.8-5.55-4.6-13.9-11.1-17.05 3 8.92 0.8 18.29-0.7 27.31-2-7.15-3.9-14.28-3.6-21.8-3.2-13.92-19.3-20.38-32.33-19.01-29.88 3.14-49.14 31.01-78.57 35.45-26.88 14.22-57.47 18.06-85.63 28.98-0.64 2.69 1.13 4.08 3.63 4.38-7.48 0.64-18.37 0.29-23.71-2.91 35.74-12.82 72.57-22.16 107.19-37.9 26.16-9.45 47.73-32.67 77.28-32.6-15.34-4.52-37.72-0.61-54.8 5.21z"/>
<path id="path182" fill="#419538" d="m943.86 392.96c17.08-5.82 39.46-9.73 54.8-5.21-29.55-0.07-51.12 23.15-77.28 32.6-34.62 15.74-71.45 25.08-107.19 37.9 5.34 3.2 16.23 3.55 23.71 2.91 18.74 0.78 37.62-0.08 56.33-1 41.78-3.77 88.8 8.18 127.17-12.79 0.8-0.45 1.7-0.91 2.5-1.38 5.3-2.39 9-7.33 10.5-12.83 1.5-9.02 3.7-18.39 0.7-27.31 6.5 3.15 7.3 11.5 11.1 17.05 0.8 9.58-1 19.74 4.8 4.95-0.6 4.73-2.4 12.72-7.9 12.8 0.5-4.18 1.3-8.37 0.5-12.59-18.6 31.5-59.66 38.93-93.4 37.97-45.46-4.42-91.26-3.89-136.8-3.1-13.57-0.56-27.05 0.88-40.59 1 4.42-2.62 12.71-2.26 13.24-8.12 11.68-5.31 23.72-10.48 36.14-13.72-4.55 3.79-12.62 3.99-15.82 8.09 9.16-1.82 18.35-4.71 26.71-8.98 37.66-14.4 72.47-35.52 110.78-48.24z"/>
<path id="path184" fill="#65b143" d="m149.57 389.44c10.56-0.83 21.19-0.84 31.73 0.26-10.07 0.61-20.3 1.38-30.22 2.13-0.38-0.6-1.13-1.79-1.51-2.39z"/>
<path id="path186" fill="#6eb84c" d="m118.48 392.5c10.33-1.36 20.69-2.49 31.09-3.06 0.38 0.6 1.13 1.79 1.51 2.39-10.05 0.97-20.03 2.45-29.97 4.13-0.7-1.28-1.59-2.45-2.63-3.46z"/>
<path id="path188" fill="#449b3a" d="m998.47 392.35c13.03-1.37 29.13 5.09 32.33 19.01-0.3 7.52 1.6 14.65 3.6 21.8-1.5 5.5-5.2 10.44-10.5 12.83 7.5-5.44 13.4-17.76 2.9-23.75-5.2-8.4-6-25.03-19.5-23.08-26.26 4.94-41.48 33.18-69.28 34.84-29.16 13.03-62.15 15.64-91.99 25.3 14.28 1.97 32.41-0.13 48.2 0.86-18.71 0.92-37.59 1.78-56.33 1-2.5-0.3-4.27-1.69-3.63-4.38 28.16-10.92 58.75-14.76 85.63-28.98 29.43-4.44 48.69-32.31 78.57-35.45z"/>
<path id="path190" fill="#76be55" d="m56.22 397.04c20.87 0.8 41.56-2.42 62.26-4.54 1.04 1.01 1.93 2.18 2.63 3.46-26.77 2.41-54.94 12.82-81.26 3.3-3.28-3.05-0.43-5.28 3.18-4.48 4.38 0.83 8.73 1.92 13.19 2.26z"/>
<path id="path192" fill="#479e3b" d="m938.02 434c27.8-1.66 43.02-29.9 69.28-34.84 13.5-1.95 14.3 14.68 19.5 23.08l-0.7-0.34c-5.1-6.95-14.2-17.25-19.9-3.69-40.47 19.85-86.49 24.94-129.83 36.28-2.78 6.76 8.3 3.66 11.75 4.55 33.96-1.31 68.45 1.09 102.08-2.9 10.8-1.24 21.1-4.91 31.2-8.77-38.37 20.97-85.39 9.02-127.17 12.79-15.79-0.99-33.92 1.11-48.2-0.86 29.84-9.66 62.83-12.27 91.99-25.3z"/>
<path id="path194" fill="#4aa43c" d="m1006.2 418.21c5.7-13.56 14.8-3.26 19.9 3.69-7.8-6.45-17.5-2.88-25.3 1.98-32.95 11.93-67.6 18.52-101.48 27.3-0.14 3.5 5.5 4.52 8.37 5.44 27.48 0.55 55.06 1.01 82.51-0.48-33.63 3.99-68.12 1.59-102.08 2.9-3.45-0.89-14.53 2.21-11.75-4.55 43.34-11.34 89.36-16.43 129.83-36.28z"/>
<path id="path196" opacity=".79" fill="#326228" d="m57.05 413c6.99 0 13.97-0.08 20.96 0.02-4.21 1.35-16.93 2.3-20.96-0.02z"/>
<path id="path198" fill="#4ea93e" d="m1000.8 423.88c7.8-4.86 17.5-8.43 25.3-1.98l0.7 0.34c10.5 5.99 4.6 18.31-2.9 23.75-0.8 0.47-1.7 0.93-2.5 1.38-10.1 3.86-20.4 7.53-31.2 8.77-27.45 1.49-55.03 1.03-82.51 0.48-2.87-0.92-8.51-1.94-8.37-5.44 33.88-8.78 68.53-15.37 101.48-27.3z"/>
<path id="path200" fill="#469d3a" d="m822.19 442.09c3.93-1.23 7.82-2.59 11.66-4.12-2.41 1.36-5.28 3.2-0.77 3.23-8.36 4.27-17.55 7.16-26.71 8.98 3.2-4.1 11.27-4.3 15.82-8.09z"/>
<path id="path202" opacity=".92" fill="#3f7b33" d="m843.63 470.75c4.32-1.93 9.12-0.37 13.63 0-4.56 0.09-9.12 0.55-13.63 0z"/>
<path id="path204" fill="#3f8f36" d="m607.19 515.73c0.17-1.64 0.49-3.25 0.86-4.84 0.67 0.77 1.36 1.54 2.06 2.32 0.95 1.06 1.92 2.11 2.95 3.12 4.03 3.87 7.73 8.1 10.99 12.64 0.76 2.43 1.51 4.88 2.69 7.15 0.48 0.89 0.96 1.78 1.46 2.68-1.07 4.84-4.12-3.4-7.46-2.58 7.52 26.45 20.84 51.16 25.36 78.46-5.75-8.83-10.6-20.99-15.25-31.5-4.59-22.36-15.07-42.9-22.57-64.34-0.38-1.04-0.74-2.08-1.09-3.11z"/>
<path id="path206" fill="#419337" d="m624.05 528.97c3.28 1.45 5.61 4.16 7.53 7.11 6.11 7.28 12.06 14.72 18.17 22.01 9.31 10.07 18.13 20.66 28.26 29.93 8.05 8.91 16.52 17.49 25.85 25.09 10.05 9.9 20.45 19.55 31.21 28.65 16.9 16.93 36.1 31.62 51.23 50.29-3 0.85-5.07-2.58-7.35-3.98-45.87-38.47-94-75.46-133.09-120.95-2.76-4.51-4.95-9.34-7.06-14.16-3.81-4.81-6.12-17.03-12.06-16.84-1.18-2.27-1.93-4.72-2.69-7.15z"/>
<path id="path208" opacity=".67" fill="#2f5c26" d="m95.95 530.98c2.09-1.4 11.84-2.39 14.07 0.04-4.69 0.11-9.38-0.02-14.07-0.04z"/>
<path id="path210" fill="#428d38" d="m26.24 568.24c24.67-28.37 65.27-35.52 100.99-32.49 65.1 9.41 130.52 17.95 196.41 18.51 6.57 1.69 15.29-1.4 20.75 2.56-16.13 7.5-32.82 13.83-49.43 20.18 3.27-3.47 8.22-4.38 12.13-6.92 10.18-3.47 20.1-7.71 29.82-12.32 0.14-1.77-2.57-0.66-3.63-1.1-67.7-1.76-135.13-8.52-202.03-18.96-36.76-4.34-79.05 2.85-104.54 32-19.87 22.06-21.44 59.1-0.35 80.94 23.41 25.45 60.54 28.31 92.71 22.96-4.27 1.06-8.38 4.37-12.86 4.06-29.34 1.69-61.99-4.33-82.29-27.59-20.2-22.68-18.31-60.03 2.32-81.83z"/>
<path id="path212" fill="#429538" d="m626.74 536.12c5.94-0.19 8.25 12.03 12.06 16.84-3.77 1.8 1.01 6.86 1.32 9.91 0.97 20.11 12.69 37.61 17.03 56.98 13.49 43.96 13.47 90.98 28.52 134.5 4.65 8.99 7.36 20.93 16.37 26.59 11.17 21.37 30.79 35.74 54.17 40.93 0.47 7.87 18.77 5.11 25.66 0.97 10.86-3.59-13.48 9.05 1.17 6.4 5 0.34 16.43-3.96 8.14 3.04-8.1 4.21-17.09 6.86-26.16 7.79 1.14-7.24-9.16-4.29-13.25-5.05-20.08 1.67-38.37-9.03-52.59-22.17-6.93-7.92-13.88-16.68-17.08-26.88-19.41-55.08-19.13-115.15-39.92-169.87 14.72 27.33 18.2 61.56 25.31 92.43 5.01 31.69 8.74 65.33 27.61 92.36 13.37 19.53 37.34 34.45 61.66 29.08-7.07-9.73-22.06-9.75-31.53-17.2-35.75-22.4-49.67-65.59-54.71-105.29-6.88-51.62-19.32-102.23-38.37-150.7 8.16 3.04-1.82-12.18-3.95-17.98-0.5-0.9-0.98-1.79-1.46-2.68z"/>
<path id="path214" fill="#65b142" d="m631.58 536.08c0.88-0.18 1.77-0.32 2.68-0.44 3.59 8.2 13.22 13.25 17.32 20.28-0.62 0.72-1.23 1.44-1.83 2.17-6.11-7.29-12.06-14.73-18.17-22.01z"/>
<path id="path216" fill="#3d8d36" d="m26.71 569.7c25.49-29.15 67.78-36.34 104.54-32 66.9 10.44 134.33 17.2 202.03 18.96-67.54 4.35-134.99-6.14-201.82-15.09-40.35-6.02-91.13 3.86-111.53 43.32-14.87 27.34 0.37 63 28.3 74.87 34.05 21.15 77.77 12.29 110.72-6.79 48.46-28.84 94.07-64.89 148.14-82.89-3.91 2.54-8.86 3.45-12.13 6.92-29.87 13.04-57.18 30.99-85.16 47.49 0.06 0.5 0.18 1.49 0.24 1.98-29.2 16.97-57.83 37.72-90.97 47.13-32.17 5.35-69.3 2.49-92.71-22.96-21.09-21.84-19.52-58.88 0.35-80.94z"/>
<path id="path218" fill="#409337" d="m620.74 536.22c3.34-0.82 6.39 7.42 7.46 2.58 2.13 5.8 12.11 21.02 3.95 17.98 19.05 48.47 31.49 99.08 38.37 150.7 5.04 39.7 18.96 82.89 54.71 105.29 9.47 7.45 24.46 7.47 31.53 17.2-24.32 5.37-48.29-9.55-61.66-29.08-18.87-27.03-22.6-60.67-27.61-92.36-7.11-30.87-10.59-65.1-25.31-92.43 20.79 54.72 20.51 114.79 39.92 169.87-3.67-1.63-3.32-6.93-4.92-10.11-16.12-50.55-17.4-104.81-35-154.96-1.14-2.98-2.19-6.01-3.03-9.09-5.55-19.6-16.84-36.94-26.27-54.75 7.92 7.13 10.68 18.37 17.97 26.12 4.65 10.51 9.5 22.67 15.25 31.5-4.52-27.3-17.84-52.01-25.36-78.46z"/>
<path id="path220" fill="#3f9237" d="m19.93 584.89c20.4-39.46 71.18-49.34 111.53-43.32 66.83 8.95 134.28 19.44 201.82 15.09 1.06 0.44 3.77-0.67 3.63 1.1-9.72 4.61-19.64 8.85-29.82 12.32-54.07 18-99.68 54.05-148.14 82.89-32.95 19.08-76.67 27.94-110.72 6.79-27.93-11.87-43.17-47.53-28.3-74.87m3.7 8.71c-9.04 22.8 7.71 48.25 28.97 56.76 23.37 13.69 52.46 14.48 78.11 7.43 31.98-10.37 57.71-32.96 86.32-49.75 16.11-11.83 36.05-18.53 52.77-28.25 6.8-1.41 14.69-4.23 20.01-8 12.42-2.19 24.06-8.14 36.05-12.07-8.35-1.16-20.76 3.14-30.36 4.99-59.59 1.02-118.68-8.46-177.73-15.53-35.36-2.58-80.36 7.29-94.14 44.42z"/>
<path id="path222" fill="#439738" d="m23.63 593.6c13.78-37.13 58.78-47 94.14-44.42 59.05 7.07 118.14 16.55 177.73 15.53 9.6-1.85 22.01-6.15 30.36-4.99-11.99 3.93-23.63 9.88-36.05 12.07 7.8-4.36 17.94-5.37 25-9.97-8.43 1.3-16.55 4.02-24.76 6.26-51.15 2.4-102.17-5.02-152.85-11.28-39.77-8.34-98.04-3.37-111.79 42.75-5.01 16.1 6.24 31.04 17.73 41.06 0.22 0.3 0.68 0.9 0.91 1.21 1.78 3.11 4.63 5.26 8.07 6.18 22.87 14.63 52.35 10.84 75.9-0.01 1.05-0.3 2.1-0.6 3.14-0.91 3.04-0.81 5.98-1.95 8.81-3.32 2.21-0.73 4.4-1.5 6.52-2.43 1.87-0.76 3.71-1.57 5.52-2.44 2.07-0.93 4.13-1.87 6.19-2.82 1.41-0.58 2.83-1.14 4.21-1.8 2-0.95 3.92-2.06 5.84-3.17 1.6-0.74 3.21-1.49 4.8-2.26 2.54-1.05 4.95-2.39 7.24-3.89 3.72-1.67 7.31-3.63 10.69-5.91 6.25-3.25 12.21-7.02 18.12-10.83 6.27-3.54 13.08-6.04 19.14-9.97 3.06-1.14 6.2-2.21 8.86-4.18 3.41-1.4 6.84-2.8 9.88-4.9 2.18-0.89 4.27-1.94 6.34-3.06 5.54-1.96 10.83-4.63 16.48-6.31-16.72 9.72-36.66 16.42-52.77 28.25-28.61 16.79-54.34 39.38-86.32 49.75-25.65 7.05-54.74 6.26-78.11-7.43-21.26-8.51-38.01-33.96-28.97-56.76z"/>
<path id="path224" fill="#509d37" d="m640.12 562.87c-0.31-3.05-5.09-8.11-1.32-9.91 2.11 4.82 4.3 9.65 7.06 14.16 2.53 6.06 4.92 12.19 7.92 18.05 1.47 4.07 2.76 8.28 5.07 11.99 1.24 3.37 2.4 6.78 3.93 10.04 0.91 2.54 1.67 5.14 2.31 7.77-7.49 1.07 3.99 16.38 2.83 24.06-8.43-25.63-16.55-51.64-27.8-76.16z"/>
<path id="path226" fill="#449939" d="m25.41 599.55c13.75-46.12 72.02-51.09 111.79-42.75 50.68 6.26 101.7 13.68 152.85 11.28-8.35 3.73-17.33 5.74-25.73 9.35-4.22-0.39 0.66-2.26-0.96-4.28-47.75 0.02-95.06-6.45-142.35-12.19-26.91-3.35-57.72-2.2-78.68 17.38-11.98 11.16-19.41 30.48-10.36 45.57 2.48 6.42 11.39 9.15 11.17 16.7-11.49-10.02-22.74-24.96-17.73-41.06z"/>
<path id="path228" fill="#6bb648" d="m649.75 558.09c0.6-0.73 1.21-1.45 1.83-2.17 7.56 9.23 17.78 15.98 25.31 25.11-6.93-2.69-0.96 4.38 1.12 6.99-10.13-9.27-18.95-19.86-28.26-29.93z"/>
<path id="path230" fill="#469c3a" d="m42.33 578.34c20.96-19.58 51.77-20.73 78.68-17.38 47.29 5.74 94.6 12.21 142.35 12.19 1.62 2.02-3.26 3.89 0.96 4.28-6.54 3.31-14.14 4.39-20.18 8.63-7.7 3.93-16.49 5.54-24.3 9.45-1.29-0.37-2.58-0.75-3.85-1.16 10.47-6.54 24.37-9.16 33.12-17.46-39.74-0.76-79.35-5.08-118.78-10.21-25.38-2.94-53.34-6.43-76.28 7.42-15.59 8.19-27.13 26.67-22.17 44.53 2.27 8.8 12.6 13.57 12.17 23.19-0.23-0.31-0.69-0.91-0.91-1.21 0.22-7.55-8.69-10.28-11.17-16.7-9.05-15.09-1.62-34.41 10.36-45.57z"/>
<path id="path232" fill="#4e9b37" d="m290.05 568.08c8.21-2.24 16.33-4.96 24.76-6.26-7.06 4.6-17.2 5.61-25 9.97-6.9 2-13.68 4.58-20.01 8-5.65 1.68-10.94 4.35-16.48 6.31-3.07-0.43-6.15-0.81-9.18-0.04 6.04-4.24 13.64-5.32 20.18-8.63 8.4-3.61 17.38-5.62 25.73-9.35z"/>
<path id="path234" fill="#449939" d="m640.12 562.87c11.25 24.52 19.37 50.53 27.8 76.16 1.21 4.43 2.28 8.9 4.03 13.17 0.05 0.64 0.16 1.93 0.21 2.57 1.74 19.94 8.25 39.19 9.43 59.2 1.51-0.38 2.31-1.95 3.68-2.65-2.51 24.26 5.47 48.39 16.77 69.62-9.01-5.66-11.72-17.6-16.37-26.59-15.05-43.52-15.03-90.54-28.52-134.5-4.34-19.37-16.06-36.87-17.03-56.98z"/>
<path id="path236" fill="#489f3b" d="m54.05 574.1c22.94-13.85 50.9-10.36 76.28-7.42 39.43 5.13 79.04 9.45 118.78 10.21-8.75 8.3-22.65 10.92-33.12 17.46 1.27 0.41 2.56 0.79 3.85 1.16l0.45 0.67c-5.84 1.92-11.88 3.6-17.1 6.94-3.58 1.67-7.34 2.92-11.07 4.2-1.29-0.32-2.58-0.67-3.83-1.1 9.46-11.71 29.66-14.06 38.45-24.16-33.88-0.93-69.76-5.25-104.4-9.38-22.26-1.83-47.02-5.32-67.28 6.38-14.18 7.56-24.72 24.27-20.11 40.61 0.53 7.63 9.7 10.89 10.14 18.33-0.35 4.73 3.91 7.24 7.03 10-3.44-0.92-6.29-3.07-8.07-6.18 0.43-9.62-9.9-14.39-12.17-23.19-4.96-17.86 6.58-36.34 22.17-44.53z"/>
<path id="path238" fill="#439739" d="m645.86 567.12c39.09 45.49 87.22 82.48 133.09 120.95 2.28 1.4 4.35 4.83 7.35 3.98 12.1 12.61 24.3 25.4 32.52 41 6.95 13.52 11.42 28.41 11.04 43.73-0.48 3.77-0.92 7.6-1.94 11.29-1.48-0.08-3.32 0.03-2.67-2.04 3.8-32.64-17.52-61.15-39.62-82.66-44.88-38.35-91.44-74.99-131.85-118.2-3-5.86-5.39-11.99-7.92-18.05z"/>
<path id="path240" fill="#4aa33c" d="m55.06 579.06c20.26-11.7 45.02-8.21 67.28-6.38 34.64 4.13 70.52 8.45 104.4 9.38-8.79 10.1-28.99 12.45-38.45 24.16 1.25 0.43 2.54 0.78 3.83 1.1-3.07 1.4-6.31 2.54-9.04 4.58-2.15 0.85-4.26 1.84-6.27 2.99-1.54 0.51-3.12 0.89-4.72 1.15-1.86 0.07-3.72 0.11-5.57 0.19-1.58-0.18-4.74-0.54-6.32-0.73 16.74-2.36 26.62-17.49 41.72-23.45 2.96-2.62 10.37-2.15 9.91-7.23-46.8 2.29-92.91-12.81-139.66-7.68-23.5 1.69-46.96 30.53-30.27 51.96 1.95 1.89 3.81 4.03 4.19 6.83-0.25 0.52-0.75 1.56-1 2.07-0.44-7.44-9.61-10.7-10.14-18.33-4.61-16.34 5.93-33.05 20.11-40.61z"/>
<path id="path242" fill="#449637" d="m269.8 579.79c6.33-3.42 13.11-6 20.01-8-5.32 3.77-13.21 6.59-20.01 8z"/>
<path id="path244" fill="#4ca63c" d="m72.17 577.14c46.75-5.13 92.86 9.97 139.66 7.68 0.46 5.08-6.95 4.61-9.91 7.23-15.1 5.96-24.98 21.09-41.72 23.45 1.58 0.19 4.74 0.55 6.32 0.73-19.81 2.64-39.78 3.77-59.64 5.91 17.43-6.66 41.01-3.56 59.7-10.52 8.42-8.97 23.56-14.33 29.97-22.56-43.75 0.16-87.31-13.79-130.91-6.42-20.7 3.85-33.9 27.63-23.74 46.46-16.69-21.43 6.77-50.27 30.27-51.96z"/>
<path id="path246" fill="#4ea93e" d="m65.64 582.64c43.6-7.37 87.16 6.58 130.91 6.42-6.41 8.23-21.55 13.59-29.97 22.56-18.69 6.96-42.27 3.86-59.7 10.52-20.27 3.87-43.01 1.76-60.79 13.79-0.38-2.8-2.24-4.94-4.19-6.83-10.16-18.83 3.04-42.61 23.74-46.46z"/>
<path id="path248" fill="#6fb94c" d="m678.01 588.02c-2.08-2.61-8.05-9.68-1.12-6.99 10.51 9.71 22.25 18.52 31.97 28.85-1.72 0.99-3.38 2.08-5 3.23-9.33-7.6-17.8-16.18-25.85-25.09z"/>
<path id="path250" fill="#4e933b" d="m473.21 624.15c6.91-14.73 16.83-28.65 25.79-42.17-2.11 37.26-4.4 75.4 0.09 112.91 4.06 25.86-7.19 54.59-30.99 67.13 5.21 4.57-3.34 7.21-7.24 5.84 6.2-1.83 0.12-1.84-3.73-2.05-5.52-1.38-11.53-1.86-16.28-5.27 8.18-2.85 17.36 1.53 25.11-2.48 34.29-17.23 20.9-64.2 26.42-95.32 0.19-2.63 0.55-5.13 0.84-7.7 1.55-7.61 1.08-15.38 1.76-23.07-2.11-4.53 2.48-16.72-2.49-17.47-13.95 24.63-28.31 49.12-45.02 72.01-8.18 16.95-26.73 28.18-30.36 47.56-4.03-9.36-0.3-18.99 1.78-28.22 13.02-26.03 33.77-46.99 50.45-70.61 5.8-8.28 12.31-16.52 15.64-26.18-4.68 4.4-7.63 10.22-11.77 15.09z"/>
<path id="path252" fill="#549f37" d="m244.14 586.06c3.03-0.77 6.11-0.39 9.18 0.04-2.07 1.12-4.16 2.17-6.34 3.06-3.57 0.97-7.55 1.74-9.88 4.9-2.66 1.97-5.8 3.04-8.86 4.18 6.77-7.82-3.06-3.31-7.95-2.06l-0.45-0.67c7.81-3.91 16.6-5.52 24.3-9.45z"/>
<path id="path254" fill="#449a39" d="m653.78 585.17c40.41 43.21 86.97 79.85 131.85 118.2 22.1 21.51 43.42 50.02 39.62 82.66-0.65 2.07 1.19 1.96 2.67 2.04-0.83 3.69-1.82 7.34-2.98 10.94-3.41 5.81-7.08 11.47-10.95 16.99-6.74 6.55-14.01 12.69-22.81 16.28 8.29-7-3.14-2.7-8.14-3.04-14.65 2.65 9.69-9.99-1.17-6.4-6.89 4.14-25.19 6.9-25.66-0.97 3.63 0.28 7.31 0.87 10.95 1.25 9.82 0.74 19.19-3.37 26.76-9.34 4.49 1.42-3.2 5.23-4.97 7.32-2.86 1.52-6.89 5.88 0.91 3.82 24.56-3.95 35.03-33.2 30.6-55.12-3.47-24.03-20.02-43.14-36.41-59.85-42.15-37.14-87.02-71.35-125.2-112.79-2.31-3.71-3.6-7.92-5.07-11.99z"/>
<path id="path256" fill="#4d9b37" d="m237.1 594.06c2.33-3.16 6.31-3.93 9.88-4.9-3.04 2.1-6.47 3.5-9.88 4.9z"/>
<path id="path258" fill="#5ca63b" d="m220.29 596.18c4.89-1.25 14.72-5.76 7.95 2.06-6.06 3.93-12.87 6.43-19.14 9.97 7.55-5.28-0.26-7.55-5.91-5.09 5.22-3.34 11.26-5.02 17.1-6.94z"/>
<path id="path260" fill="#469d3a" d="m658.85 597.16c38.18 41.44 83.05 75.65 125.2 112.79 16.39 16.71 32.94 35.82 36.41 59.85 4.43 21.92-6.04 51.17-30.6 55.12-7.8 2.06-3.77-2.3-0.91-3.82 2.06 4.12 7.13-0.22 9.96-1.02 17.6-10.42 23.11-34.21 18.13-53.03-5.14-25.66-26.05-43.76-43.95-61.14-37.88-31.67-75.45-63.75-110.31-98.71-1.53-3.26-2.69-6.67-3.93-10.04z"/>
<path id="path262" fill="#65ae3e" d="m203.19 603.12c5.65-2.46 13.46-0.19 5.91 5.09-5.91 3.81-11.87 7.58-18.12 10.83 5.35-6.5-2-8.15-7.9-7.14 2.73-2.04 5.97-3.18 9.04-4.58 3.73-1.28 7.49-2.53 11.07-4.2z"/>
<path id="path264" fill="#489f3b" d="m662.78 607.2c34.86 34.96 72.43 67.04 110.31 98.71 17.9 17.38 38.81 35.48 43.95 61.14 4.98 18.82-0.53 42.61-18.13 53.03-2.83 0.8-7.9 5.14-9.96 1.02 1.77-2.09 9.46-5.9 4.97-7.32l0.46-0.54c2.51-2.2 5.12-4.29 7.7-6.41 0.44 4.88-5.51 7.67-7.28 12.02 28.55-16.6 22.26-58.66 1.92-79.56-36.21-41.72-83.8-71.82-121.34-112.39-5.03-5.65-2.45 1.19-3.36 4.44-2.99-5.15-5.97-10.42-6.93-16.37-0.64-2.63-1.4-5.23-2.31-7.77z"/>
<path id="path266" fill="#569c3a" d="m473.21 624.15c4.14-4.87 7.09-10.69 11.77-15.09-3.33 9.66-9.84 17.9-15.64 26.18-0.66-0.7-1.31-1.39-1.96-2.07 0.99-3.42 3.99-5.98 5.83-9.02z"/>
<path id="path268" fill="#73bc51" d="m703.86 613.11c1.62-1.15 3.28-2.24 5-3.23 11.56 9.99 24.56 18.95 35.08 30.21-4.63-3.57-11.69-7.18-8.87 1.67-10.76-9.1-21.16-18.75-31.21-28.65z"/>
<path id="path270" fill="#6cb442" d="m176.81 614.89c2.01-1.15 4.12-2.14 6.27-2.99 5.9-1.01 13.25 0.64 7.9 7.14-3.38 2.28-6.97 4.24-10.69 5.91-0.54-3.54-1.6-7-3.48-10.06z"/>
<path id="path272" fill="#50963b" d="m492.49 614.5c4.97 0.75 0.38 12.94 2.49 17.47-1.37-0.68-2.74-1.37-4.16-1.91-14.23 26.33-30.35 51.66-45.34 77.42-11.05 10.07-26.1 23.83-21.38 40.47-3.28-1.65-5.02-5.15-7.38-7.78-4.35-10.89-3.91-24.15 2.17-34.32-2.08 9.23-5.81 18.86-1.78 28.22 3.63-19.38 22.18-30.61 30.36-47.56 16.71-22.89 31.07-47.38 45.02-72.01z"/>
<path id="path274" fill="#55a037" d="m667.92 639.03c1.16-7.68-10.32-22.99-2.83-24.06 0.96 5.95 3.94 11.22 6.93 16.37 0.95 4.37 3.18 8.34 3.88 12.78-6.93-15.15-5.39 1.02-3.95 8.08-1.75-4.27-2.82-8.74-4.03-13.17z"/>
<path id="path276" fill="#76b94e" d="m172.09 616.04c1.6-0.26 3.18-0.64 4.72-1.15 1.88 3.06 2.94 6.52 3.48 10.06-2.29 1.5-4.7 2.84-7.24 3.89-0.86-3.59 0.58-9.71-4.27-10.89 1.1-0.64 2.2-1.3 3.31-1.91z"/>
<path id="path278" fill="#5baa3a" d="m166.52 616.23c1.85-0.08 3.71-0.12 5.57-0.19-1.11 0.61-2.21 1.27-3.31 1.91-1.59 0.61-3.2 1.19-4.81 1.77-1.03 0.28-2.07 0.55-3.1 0.82-19.88-0.22-39.64 3.15-59.41 4.9-15.81 3.03-34 1.38-47.24 11.92-3.91 5.59 3.92 9.49 7.85 11.63 16.21 10.1 36.88 8.09 53.92 1.16 1.76-0.21 3.54-0.38 5.27-0.78 2.24-0.52 4.49-1 6.76-1.38-23.55 10.85-53.03 14.64-75.9 0.01-3.12-2.76-7.38-5.27-7.03-10 0.25-0.51 0.75-1.55 1-2.07 17.78-12.03 40.52-9.92 60.79-13.79 19.86-2.14 39.83-3.27 59.64-5.91z"/>
<path id="path280" fill="#7fbe59" d="m163.97 619.72c1.61-0.58 3.22-1.16 4.81-1.77 4.85 1.18 3.41 7.3 4.27 10.89-1.59 0.77-3.2 1.52-4.8 2.26-1.28-3.8-0.98-8.66-4.28-11.38z"/>
<path id="path282" fill="#6ab445" d="m101.46 625.44c19.77-1.75 39.53-5.12 59.41-4.9-1.36 0.36-2.7 0.75-4.05 1.09-0.64 0.13-1.9 0.4-2.54 0.53-29.74 3.17-60.45 3.43-89.25 11.94-10.72 0.67-9.07 12.15-0.2 14.22 8.18 4.02 18.11 7.95 27.4 6.04 6.69-1.23 13.65-1.59 20.02-4.13 1.25-0.05 2.49-0.07 3.74-0.08-17.04 6.93-37.71 8.94-53.92-1.16-3.93-2.14-11.76-6.04-7.85-11.63 13.24-10.54 31.43-8.89 47.24-11.92z"/>
<path id="path284" fill="#87c162" d="m160.87 620.54c1.03-0.27 2.07-0.54 3.1-0.82 3.3 2.72 3 7.58 4.28 11.38-1.92 1.11-3.84 2.22-5.84 3.17 0.39-4.39 0.63-12.46-5.59-12.64 1.35-0.34 2.69-0.73 4.05-1.09z"/>
<path id="path286" fill="#408e37" d="m642.18 620.9c17.6 50.15 18.88 104.41 35 154.96-11.36-19.47-13.93-44.36-18.5-66.59-3.63-29.77-11.94-58.89-16.5-88.37z"/>
<path id="path288" fill="#7dbc5b" d="m65.03 634.1c28.8-8.51 59.51-8.77 89.25-11.94-0.39 0.15-1.18 0.46-1.58 0.61-2.61 0.78-5.27 1.39-7.94 1.96-0.66 0.06-1.99 0.18-2.66 0.24-22.31 0.88-44.62 3.69-66.6 7.47-5.03 1.85-13.62 3.35-13.35 10.19 7.74 8.23 19.14 11.12 30.08 11.73-9.29 1.91-19.22-2.02-27.4-6.04-6.55-3.87-7.26-10.86 0.2-14.22z"/>
<path id="path290" fill="#8ec56b" d="m154.28 622.16c0.64-0.13 1.9-0.4 2.54-0.53 6.22 0.18 5.98 8.25 5.59 12.64-1.38 0.66-2.8 1.22-4.21 1.8-1.3-4.59-0.62-10.75-5.5-13.3 0.4-0.15 1.19-0.46 1.58-0.61z"/>
<path id="path292" fill="#96c874" d="m144.76 624.73c2.67-0.57 5.33-1.18 7.94-1.96 4.88 2.55 4.2 8.71 5.5 13.3-2.06 0.95-4.12 1.89-6.19 2.82-0.8-5.04 0.6-15.15-7.25-14.16z"/>
<path id="path294" fill="#4aa23c" d="m672.02 631.34c0.91-3.25-1.67-10.09 3.36-4.44 37.54 40.57 85.13 70.67 121.34 112.39 20.34 20.9 26.63 62.96-1.92 79.56 1.77-4.35 7.72-7.14 7.28-12.02 15.22-17.7 5.95-45.26-8.31-60.61-33.02-37.7-75.27-66.13-110.1-101.86-0.05 8.63 6.58 21.67 7.44 32.32-2.94 0.17-3.81-13.02-5.39-5.63-0.84-1.57-1.47-3.23-1.91-4.95-0.9-7.86-5.42-14.6-7.91-21.98-0.7-4.44-2.93-8.41-3.88-12.78z"/>
<path id="path296" fill="#8ec46f" d="m75.5 632.44c21.98-3.78 44.29-6.59 66.6-7.47l-0.59 0.67c-1.87 0.36-3.74 0.72-5.58 1.22-1.32 0.33-2.63 0.73-3.98 0.95-9.35-1.5-18.91 0.35-28.12 1.9-4.96 1.25-10.46 0.6-14.95 3.32-1.64 0-4.92 0.01-6.56 0.01-6.31 0.24-18.53 2.33-15.59 10.99 4.82 4.12 10.71 7.66 17.2 8 3.08 0.37 6.19 0.22 9.29 0.1 4.15-0.06 8.17-1.08 12.22-1.83 1.31-0.02 2.62-0.03 3.93-0.04 0.72-0.01 2.16-0.02 2.88-0.03-6.37 2.54-13.33 2.9-20.02 4.13-10.94-0.61-22.34-3.5-30.08-11.73-0.27-6.84 8.32-8.34 13.35-10.19z"/>
<path id="path298" fill="#9ecc7d" d="m142.1 624.97c0.67-0.06 2-0.18 2.66-0.24 7.85-0.99 6.45 9.12 7.25 14.16-1.81 0.87-3.65 1.68-5.52 2.44 0.6-5.5 0.31-12.62-4.98-15.69l0.59-0.67z"/>
<path id="path300" fill="#a6d088" d="m135.93 626.86c1.84-0.5 3.71-0.86 5.58-1.22 5.29 3.07 5.58 10.19 4.98 15.69-2.12 0.93-4.31 1.7-6.52 2.43-0.34-5.69 0.73-12.68-4.04-16.9z"/>
<path id="path302" fill="#a0cc82" d="m103.83 629.71c9.21-1.55 18.77-3.4 28.12-1.9-1.51 0.2-4.53 0.59-6.05 0.79-2.29 0.29-4.57 0.68-6.83 1.17-1.71 0.35-3.4 0.82-5.13 1.07-3.38-0.38-6.73-0.83-10.11-1.13z"/>
<path id="path304" fill="#b0d593" d="m131.95 627.81c1.35-0.22 2.66-0.62 3.98-0.95 4.77 4.22 3.7 11.21 4.04 16.9-2.83 1.37-5.77 2.51-8.81 3.32 0.2-5.38 2.8-17.4-5.26-18.48 1.52-0.2 4.54-0.59 6.05-0.79z"/>
<path id="path306" fill="#bcdaa2" d="m119.07 629.77c2.26-0.49 4.54-0.88 6.83-1.17 8.06 1.08 5.46 13.1 5.26 18.48-1.04 0.31-2.09 0.61-3.14 0.91-2.27 0.38-4.52 0.86-6.76 1.38 2.49-6.37 1.05-13.77-2.19-19.6z"/>
<path id="path308" fill="#a9d08b" d="m88.88 633.03c4.49-2.72 9.99-2.07 14.95-3.32 3.38 0.3 6.73 0.75 10.11 1.13-1.54 0.19-4.63 0.56-6.17 0.75-3.71 0.43-7.41 1.03-11.14 1.31-2.58 0.01-5.17 0.05-7.75 0.13z"/>
<path id="path310" fill="#c9e1b2" d="m113.94 630.84c1.73-0.25 3.42-0.72 5.13-1.07 3.24 5.83 4.68 13.23 2.19 19.6-1.73 0.4-3.51 0.57-5.27 0.78-1.25 0.01-2.49 0.03-3.74 0.08-0.72 0.01-2.16 0.02-2.88 0.03 4.43-5.53 2.1-13.38-1.6-18.67 1.54-0.19 4.63-0.56 6.17-0.75z"/>
<path id="path312" fill="#53983b" d="m490.82 630.06c1.42 0.54 2.79 1.23 4.16 1.91-0.68 7.69-0.21 15.46-1.76 23.07-2.07-4.14 3.6-16.19-1.89-16.88-17.17 31.87-29.45 69.12-57.11 93.94-6.4 4.64-8.26 14.91-2.91 20.87 6.03 1.74 12.59 0.55 18.76 1.86 4.63 3.2 10.39 4.22 15.89 3.23-7.75 4.01-16.93-0.37-25.11 2.48 4.75 3.41 10.76 3.89 16.28 5.27-16.82 0.63-33.8-10.17-40.41-25.64 2.36 2.63 4.1 6.13 7.38 7.78-4.72-16.64 10.33-30.4 21.38-40.47 14.99-25.76 31.11-51.09 45.34-77.42z"/>
<path id="path314" fill="#dbe9c5" d="m96.63 632.9c3.73-0.28 7.43-0.88 11.14-1.31 3.7 5.29 6.03 13.14 1.6 18.67-1.31 0.01-2.62 0.02-3.93 0.04-6.79-0.65-13.85 0.72-20.51-1.02-0.77-0.68-1.54-1.36-2.31-2.02-4.18-4.92 0.92-10.11 6.24-10.18-3.51 4.67-1.32 11.16 4.85 11.35 10.27 3.72 8.11-10.58 3.4-14.75l-0.48-0.78z"/>
<path id="path316" fill="#9bc97d" d="m66.73 644.03c-2.94-8.66 9.28-10.75 15.59-10.99-15.27 0.7-15.75 15.04-1.43 17.2 1.07 0.32 2.15 0.63 3.24 0.94l-0.2 0.85c-6.49-0.34-12.38-3.88-17.2-8z"/>
<path id="path318" fill="#aad08c" d="m82.32 633.04c1.64 0 4.92-0.01 6.56-0.01-5.55 1.94-13.22 1.93-16.65 7.51-1.39 5.28 5.62 6.94 8.66 9.7-14.32-2.16-13.84-16.5 1.43-17.2z"/>
<path id="path320" fill="#bad89c" d="m88.88 633.03c2.58-0.08 5.17-0.12 7.75-0.13l0.48 0.78c-1.63 0.59-3.3 1.06-5.01 1.39-0.43 0.01-1.31 0.03-1.75 0.04-11.37-2.4-22.97 12.08-5.42 14.17 6.66 1.74 13.72 0.37 20.51 1.02-4.05 0.75-8.07 1.77-12.22 1.83-3.04-0.27-6.06-0.67-9.09-0.95-1.09-0.31-2.17-0.62-3.24-0.94-3.04-2.76-10.05-4.42-8.66-9.7 3.43-5.58 11.1-5.57 16.65-7.51z"/>
<path id="path322" fill="#5ba33a" d="m467.38 633.17c0.65 0.68 1.3 1.37 1.96 2.07-16.68 23.62-37.43 44.58-50.45 70.61-6.08 10.17-6.52 23.43-2.17 34.32 6.61 15.47 23.59 26.27 40.41 25.64 3.85 0.21 9.93 0.22 3.73 2.05-3.85 0.98-7.86 1.26-11.82 1.27-34.41-1.02-50.7-42.26-34.96-70.1 14.65-24.15 35.46-44.13 53.3-65.86z"/>
<path id="path324" fill="#73b950" d="m64.83 648.32c-8.87-2.07-10.52-13.55 0.2-14.22-7.46 3.36-6.75 10.35-0.2 14.22z"/>
<path id="path326" fill="#e8f0da" d="m92.1 635.07c1.71-0.33 3.38-0.8 5.01-1.39 4.71 4.17 6.87 18.47-3.4 14.75-6.17-0.19-8.36-6.68-4.85-11.35 1.24-0.41 2.44-0.94 3.24-2.01z"/>
<path id="path328" fill="#c8dfab" d="m84.93 649.28c-17.55-2.09-5.95-16.57 5.42-14.17-6.36 0.3-18.24 7.56-7.73 12.15 0.77 0.66 1.54 1.34 2.31 2.02z"/>
<path id="path330" fill="#d5e5b8" d="m90.35 635.11c0.44-0.01 1.32-0.03 1.75-0.04-0.8 1.07-2 1.6-3.24 2.01-5.32 0.07-10.42 5.26-6.24 10.18-10.51-4.59 1.37-11.85 7.73-12.15z"/>
<path id="path332" fill="#78c057" d="m735.07 641.76c-2.82-8.85 4.24-5.24 8.87-1.67 31.87 26.07 68.29 51.59 85.86 90.21 5.28 9.62-8.16 12.24-10.98 2.75-8.22-15.6-20.42-28.39-32.52-41-15.13-18.67-34.33-33.36-51.23-50.29z"/>
<path id="path334" fill="#5ba63a" d="m671.95 652.2c-1.44-7.06-2.98-23.23 3.95-8.08 2.49 7.38 7.01 14.12 7.91 21.98-2.78-9.94-9.2-13.6-8.11 0.1-1.08-3.85-2.43-7.62-3.54-11.43-0.05-0.64-0.16-1.93-0.21-2.57z"/>
<path id="path336" fill="#559b3b" d="m491.33 638.16c5.49 0.69-0.18 12.74 1.89 16.88-0.29 2.57-0.65 5.07-0.84 7.7-1.71-3.62 2.63-12.44-3.16-12.74-16.37 32.33-21.05 74.01-52.37 96-3.34 8.94 9.76 3.16 13.22 8.83-6.17-1.31-12.73-0.12-18.76-1.86-5.35-5.96-3.49-16.23 2.91-20.87 27.66-24.82 39.94-62.07 57.11-93.94z"/>
<path id="path338" fill="#4ca63c" d="m691.11 676.68c-0.86-10.65-7.49-23.69-7.44-32.32 34.83 35.73 77.08 64.16 110.1 101.86 14.26 15.35 23.53 42.91 8.31 60.61-2.58 2.12-5.19 4.21-7.7 6.41 15.64-13.37 15.33-37.48 3.67-53.29-27.78-38.67-70.01-63.33-101.8-98.11-1.1-2.77-7.53-4.73-3.91 1.63 2.5 9.63 4.31 19.42 4.78 29.4-3.79 1.42-3.14-10.38-5.37-4.78-0.69-1.65-1.22-3.35-1.79-5.03-0.91-4.17-2.23-8.25-4.24-12.01 1.58-7.39 2.45 5.8 5.39 5.63z"/>
<path id="path340" fill="#589f3a" d="m489.22 650c5.79 0.3 1.45 9.12 3.16 12.74-5.52 31.12 7.87 78.09-26.42 95.32-5.5 0.99-11.26-0.03-15.89-3.23-3.46-5.67-16.56 0.11-13.22-8.83 31.32-21.99 36-63.67 52.37-96m-4.91 19.15c-12.54 26.1-22.02 54.22-37.23 79.08 2.81 10.48 19.87 11.54 26.95 3.76 18.12-18.05 13.91-46.72 15-69.95-0.53-3.53 1.86-14.05-4.72-12.89z"/>
<path id="path342" fill="#a5ce87" d="m84.13 651.18c3.03 0.28 6.05 0.68 9.09 0.95-3.1 0.12-6.21 0.27-9.29-0.1l0.2-0.85z"/>
<path id="path344" fill="#499e3b" d="m672.16 654.77c1.11 3.81 2.46 7.58 3.54 11.43 1.05 6.43 2.93 12.66 4.2 19.05 1.08 6.02 2.69 11.92 3.9 17.93 0.51 2.36 1.24 4.67 1.96 6.99l0.18 0.77-0.67 0.38c-1.37 0.7-2.17 2.27-3.68 2.65-1.18-20.01-7.69-39.26-9.43-59.2z"/>
<path id="path346" fill="#63ac3d" d="m675.7 666.2c-1.09-13.7 5.33-10.04 8.11-0.1 0.44 1.72 1.07 3.38 1.91 4.95 2.01 3.76 3.33 7.84 4.24 12.01-2.8-8.14-8.15-5.11-10.06 2.19-1.27-6.39-3.15-12.62-4.2-19.05z"/>
<path id="path348" fill="#4ea93e" d="m692.34 663.47c-3.62-6.36 2.81-4.4 3.91-1.63 31.79 34.78 74.02 59.44 101.8 98.11 11.66 15.81 11.97 39.92-3.67 53.29l-0.46 0.54c-7.57 5.97-16.94 10.08-26.76 9.34l-0.13-0.9c18.08 3.07 7.2-20.26 1.87-28.14-23.38-33.75-47.64-67.84-73.98-98.91-1.03-2.38-2.19-4.69-3.17-7.08 2.23-5.6 1.58 6.2 5.37 4.78-0.47-9.98-2.28-19.77-4.78-29.4z"/>
<path id="path350" fill="#5ea63a" d="m484.31 669.15c6.58-1.16 4.19 9.36 4.72 12.89-1.09 23.23 3.12 51.9-15 69.95-7.08 7.78-24.14 6.72-26.95-3.76 15.21-24.86 24.69-52.98 37.23-79.08z"/>
<path id="path352" fill="#6ab241" d="m679.9 685.25c1.91-7.3 7.26-10.33 10.06-2.19 0.57 1.68 1.1 3.38 1.79 5.03 0.98 2.39 2.14 4.7 3.17 7.08 0.33 1.28 0.66 2.59 1.02 3.89-3.7-4.74-9.1 1.37-12.14 4.12-1.21-6.01-2.82-11.91-3.9-17.93z"/>
<path id="path354" fill="#5aa839" d="m694.92 695.17c26.34 31.07 50.6 65.16 73.98 98.91 5.33 7.88 16.21 31.21-1.87 28.14-16.98-4.82-36.11-11.74-45.33-27.91 10.67 11.69 25.61 21.14 41.81 21.45 7.82-3.15 2.01-14.91-0.61-20.7-18.95-29.1-39.61-57.4-61.91-83.98-1-2.04-1.96-4.08-2.9-6.12-0.85-1.93-1.54-3.91-2.15-5.9-0.36-1.3-0.69-2.61-1.02-3.89z"/>
<path id="path356" fill="#71b748" d="m683.8 703.18c3.04-2.75 8.44-8.86 12.14-4.12 0.61 1.99 1.3 3.97 2.15 5.9-4.07-4.28-10.32 1.18-12.33 5.21-0.72-2.32-1.45-4.63-1.96-6.99z"/>
<path id="path358" fill="#4f943b" d="m449.04 769.13c-35.37 5.47-55.36-44.06-34.96-70.1-15.74 27.84 0.55 69.08 34.96 70.1z"/>
<path id="path360" fill="#78ba50" d="m685.76 710.17c2.01-4.03 8.26-9.49 12.33-5.21 0.94 2.04 1.9 4.08 2.9 6.12l0.24 0.72c-4.57-5.41-10.32-0.87-14.53 2.37-0.26-1.09-0.52-2.16-0.76-3.23l-0.18-0.77z"/>
<path id="path362" fill="#7fbe59" d="m686.7 714.17c4.21-3.24 9.96-7.78 14.53-2.37 0.58 1.71 1.1 3.45 1.71 5.17-3.78-6.28-11.66-0.31-14.29 4.25-0.71-2.34-1.4-4.68-1.95-7.05z"/>
<path id="path364" fill="#479937" d="m685.27 711.32l0.67-0.38c0.24 1.07 0.5 2.14 0.76 3.23 0.55 2.37 1.24 4.71 1.95 7.05 0.59 2.03 1.28 4.04 1.97 6.05 0.66 2.02 1.37 4.03 2.06 6.06 0.59 1.99 1.2 3.99 1.89 5.98 0.66 2.01 1.43 4 2.16 6.01 0.74 2.72 1.68 5.4 2.88 7.98 1 2.35 2.09 4.67 3.14 7.02 0.9 2.29 1.75 4.62 2.8 6.87 4.26 9.65 9.94 18.61 16.15 27.12 9.22 16.17 28.35 23.09 45.33 27.91l0.13 0.9c-3.64-0.38-7.32-0.97-10.95-1.25-23.38-5.19-43-19.56-54.17-40.93-11.3-21.23-19.28-45.36-16.77-69.62z"/>
<path id="path366" fill="#69b444" d="m700.99 711.08c22.3 26.58 42.96 54.88 61.91 83.98 2.62 5.79 8.43 17.55 0.61 20.7-16.2-0.31-31.14-9.76-41.81-21.45-6.21-8.51-11.89-17.47-16.15-27.12 0.76 0.58 1.54 1.17 2.33 1.76 0.88 1.74 1.81 3.47 2.85 5.14 1 1.68 2.01 3.36 2.95 5.09 0.64 1.29 1.27 2.6 2.02 3.85 3.5 5.72 8.01 10.81 13.28 14.97 1.92 2.43 4.21 4.55 6.91 6.12 3.01 2.16 6.16 4.51 9.99 4.85 5.09 1.68 14.16 7.5 17.97 0.39-0.19-5.48-0.78-11.98-4.94-16.02-14.93-23.8-31.89-46.42-49.65-68.2-2.03-2.79-4.35-5.34-6.32-8.17-0.61-1.72-1.13-3.46-1.71-5.17l-0.24-0.72z"/>
<path id="path368" fill="#87c162" d="m688.65 721.22c2.63-4.56 10.51-10.53 14.29-4.25 1.97 2.83 4.29 5.38 6.32 8.17 0.18 1.31 0.32 2.64 0.35 3.99-0.54-0.86-1.08-1.7-1.64-2.51-3.08-10.83-12.51-4.87-17.35 0.65-0.69-2.01-1.38-4.02-1.97-6.05z"/>
<path id="path370" fill="#8fc56c" d="m690.62 727.27c4.84-5.52 14.27-11.48 17.35-0.65-6.09-2.06-10.71 3.84-15.29 6.71-0.69-2.03-1.4-4.04-2.06-6.06z"/>
<path id="path372" fill="#7dbd5b" d="m709.26 725.14c17.76 21.78 34.72 44.4 49.65 68.2 0.09 0.6 0.27 1.78 0.36 2.38-1.36-1.04-2.63-2.21-3.51-3.67-11.8-20.95-27.26-39.74-41.84-58.82-0.3 0.21-0.9 0.61-1.2 0.82-1.06-1.12-2.12-2.22-3.15-3.34 0.01-0.4 0.03-1.19 0.04-1.58-0.03-1.35-0.17-2.68-0.35-3.99z"/>
<path id="path374" fill="#96c975" d="m692.68 733.33c4.58-2.87 9.2-8.77 15.29-6.71 0.56 0.81 1.1 1.65 1.64 2.51-0.01 0.39-0.03 1.18-0.04 1.58-5.7 1.43-10.97 4.23-15 8.6-0.69-1.99-1.3-3.99-1.89-5.98z"/>
<path id="path376" fill="#70ba4d" d="m829.8 730.3c3.25 2.53 3.84 8.82 5.97 12.88 2.04 7.68 3.94 15.45 4.46 23.42-1.48 5.51-2.68 14.32-10.37 10.18 0.38-15.32-4.09-30.21-11.04-43.73 2.82 9.49 16.26 6.87 10.98-2.75z"/>
<path id="path378" fill="#9ecc7d" d="m694.57 739.31c4.03-4.37 9.3-7.17 15-8.6 1.03 1.12 2.09 2.22 3.15 3.34 0.81 1.25 1.57 2.54 2.31 3.86-6.7-4.44-13.01 3.94-18.3 7.41-0.73-2.01-1.5-4-2.16-6.01z"/>
<path id="path380" fill="#8ec46f" d="m712.72 734.05c0.3-0.21 0.9-0.61 1.2-0.82 14.58 19.08 30.04 37.87 41.84 58.82 1.06 4.63 4.34 10.73 0.57 14.78-7.06 0.51-16.52-0.68-20.91-6.18 5.92 2.5 12.32 5.06 18.86 3.87 4.04-5.85-0.48-13.69-4.18-18.62-6.38-10.3-12.91-20.84-21.15-29.72-1.52-2.7-3.12-5.5-5.95-7.01-1.32-4.71-5.94-7.02-7.97-11.26-0.74-1.32-1.5-2.61-2.31-3.86z"/>
<path id="path382" fill="#a6d087" d="m696.73 745.32c5.29-3.47 11.6-11.85 18.3-7.41 2.03 4.24 6.65 6.55 7.97 11.26-6.13-12.87-17.3-2.78-23.39 4.13-1.2-2.58-2.14-5.26-2.88-7.98z"/>
<path id="path384" fill="#3f8f37" d="m835.77 743.18c0.02-1.74 0.49-2.25 1.4-1.53 13.33 32.48 7.05 74.4-22.1 96.44-36.29 27.75-91.02 9.06-115.89-25.24 14.22 13.14 32.51 23.84 52.59 22.17 4.09 0.76 14.39-2.19 13.25 5.05-7.49 0.74-16.56-0.13-23.13 0.77 31.26 9.68 71.15 2.91 88.3-27.71 3.07-4.96 5.58-10.28 7.15-15.91 2.32-9.89 4.96-20.51 2.89-30.62-0.52-7.97-2.42-15.74-4.46-23.42z"/>
<path id="path386" fill="#b0d593" d="m699.61 753.3c6.09-6.91 17.26-17 23.39-4.13 0.03 0.37 0.09 1.12 0.12 1.5-7.43-4.46-14.3 6.89-20.37 9.65-1.05-2.35-2.14-4.67-3.14-7.02z"/>
<path id="path388" fill="#b8d89d" d="m702.75 760.32c6.07-2.76 12.94-14.11 20.37-9.65 0.65 3.29 4.15 4.91 4.86 8.22-6.57-6.7-18.58 2.82-20.1 10.06-0.79-0.59-1.57-1.18-2.33-1.76-1.05-2.25-1.9-4.58-2.8-6.87z"/>
<path id="path390" fill="#abd18d" d="m723 749.17c2.83 1.51 4.43 4.31 5.95 7.01 0.36 1.28 0.72 2.56 1.09 3.86l0.17 0.76c-0.76-0.64-1.5-1.28-2.23-1.91-0.71-3.31-4.21-4.93-4.86-8.22-0.03-0.38-0.09-1.13-0.12-1.5z"/>
<path id="path392" fill="#c2dda9" d="m707.88 768.95c1.52-7.24 13.53-16.76 20.1-10.06 0.73 0.63 1.47 1.27 2.23 1.91 0.22 1.01 0.46 2.03 0.7 3.05-7.65-4.98-15.97 4.78-20.18 10.24-1.04-1.67-1.97-3.4-2.85-5.14z"/>
<path id="path394" fill="#9fcb81" d="m728.95 756.18c8.24 8.88 14.77 19.42 21.15 29.72-0.52-0.23-1.57-0.69-2.09-0.92-5.88-8.37-10.97-17.46-17.97-24.94-0.37-1.3-0.73-2.58-1.09-3.86z"/>
<path id="path396" fill="#b6d699" d="m730.04 760.04c7 7.48 12.09 16.57 17.97 24.94 4.56 8.26 4.02 21.57-8.61 14.23l0.93-0.09c11.38 3.21 9.68-10.11 4.66-15.1-0.69-1.16-1.39-2.72-2.4-0.85-0.17-0.35-0.5-1.05-0.67-1.4-0.65-2.09-1.61-4.06-2.98-5.76-0.97-1.37-1.84-2.79-2.72-4.19-1.57-2.8-3.78-5.16-5.31-7.97-0.24-1.02-0.48-2.04-0.7-3.05l-0.17-0.76z"/>
<path id="path398" fill="#cbe1b4" d="m710.73 774.09c4.21-5.46 12.53-15.22 20.18-10.24 1.53 2.81 3.74 5.17 5.31 7.97-7.23-8.96-16.3 3.16-22.54 7.36-0.94-1.73-1.95-3.41-2.95-5.09z"/>
<path id="path400" fill="#69b645" d="m840.23 766.6c2.07 10.11-0.57 20.73-2.89 30.62-1.21 5.52-15.91 11.28-12.4 1.79 1.16-3.6 2.15-7.25 2.98-10.94 1.02-3.69 1.46-7.52 1.94-11.29 7.69 4.14 8.89-4.67 10.37-10.18z"/>
<path id="path402" fill="#d4e5be" d="m713.68 779.18c6.24-4.2 15.31-16.32 22.54-7.36 0.88 1.4 1.75 2.82 2.72 4.19-9.05-6.75-14.18 8.09-23.24 7.02-0.75-1.25-1.38-2.56-2.02-3.85z"/>
<path id="path404" fill="#ddeac8" d="m715.7 783.03c9.06 1.07 14.19-13.77 23.24-7.02 1.37 1.7 2.33 3.67 2.98 5.76-7.99-2.52-12.95 5.17-19.96 6.7 2.56 4.29 6.92 7.74 11.85 8.84 2.26 0.39 4.56 0.71 6.89 0.96l-0.37 0.85-0.93 0.09c-1.63-0.03-4.89-0.1-6.52-0.14-1.31-0.35-2.61-0.7-3.9-1.07-5.27-4.16-9.78-9.25-13.28-14.97z"/>
<path id="path406" fill="#e5efd6" d="m721.96 788.47c7.01-1.53 11.97-9.22 19.96-6.7 0.17 0.35 0.5 1.05 0.67 1.4 1.57 3.3 3.1 7.12 1.81 10.8 2.35-11.28-17.6-3.56-10.59 3.34-4.93-1.1-9.29-4.55-11.85-8.84z"/>
<path id="path408" fill="#c9dfad" d="m742.59 783.17c1.01-1.87 1.71-0.31 2.4 0.85 0.44 4.31 5.28 13.03-1.8 13.26 0.46-1.08 0.87-2.19 1.21-3.31 1.29-3.68-0.24-7.5-1.81-10.8z"/>
<path id="path410" fill="#bfdaa2" d="m744.99 784.02c5.02 4.99 6.72 18.31-4.66 15.1l0.37-0.85c0.62-0.24 1.86-0.74 2.49-0.99 7.08-0.23 2.24-8.95 1.8-13.26z"/>
<path id="path412" fill="#a8cf8a" d="m748.01 784.98c0.52 0.23 1.57 0.69 2.09 0.92 0.85 5.07 4.97 11.29 1.76 16.02-5.36 2.91-11.12-1.45-16.67-2.02-0.57-0.21-1.73-0.62-2.31-0.83 1.63 0.04 4.89 0.11 6.52 0.14 12.63 7.34 13.17-5.97 8.61-14.23z"/>
<path id="path414" fill="#9bc97d" d="m750.1 785.9c3.7 4.93 8.22 12.77 4.18 18.62-6.54 1.19-12.94-1.37-18.86-3.87l-0.23-0.75c5.55 0.57 11.31 4.93 16.67 2.02 3.21-4.73-0.91-10.95-1.76-16.02z"/>
<path id="path416" fill="#eef4e5" d="m733.81 797.31c-7.01-6.9 12.94-14.62 10.59-3.34-0.34 1.12-0.75 2.23-1.21 3.31-0.63 0.25-1.87 0.75-2.49 0.99-2.33-0.25-4.63-0.57-6.89-0.96z"/>
<path id="path418" fill="#83bf63" d="m755.76 792.05c0.88 1.46 2.15 2.63 3.51 3.67 4.67 11.97-2.99 15.49-13.13 12.46-3.35-1.53-6.83-2.78-10.25-4.06-2.7-1.57-4.99-3.69-6.91-6.12 1.29 0.37 2.59 0.72 3.9 1.07 0.58 0.21 1.74 0.62 2.31 0.83l0.23 0.75c4.39 5.5 13.85 6.69 20.91 6.18 3.77-4.05 0.49-10.15-0.57-14.78z"/>
<path id="path420" fill="#72b84e" d="m758.91 793.34c4.16 4.04 4.75 10.54 4.94 16.02-3.81 7.11-12.88 1.29-17.97-0.39 12.21 7.06 20.49-2.54 13.39-13.25-0.09-0.6-0.27-1.78-0.36-2.38z"/>
<path id="path422" fill="#7bbc59" d="m759.27 795.72c7.1 10.71-1.18 20.31-13.39 13.25l0.26-0.79c10.14 3.03 17.8-0.49 13.13-12.46z"/>
<path id="path424" fill="#65b33f" d="m824.94 799.01c-3.51 9.49 11.19 3.73 12.4-1.79-1.57 5.63-4.08 10.95-7.15 15.91-3.44 4.49-21.62 13.5-16.2 2.87 3.87-5.52 7.54-11.18 10.95-16.99z"/>
<path id="path426" fill="#74b951" d="m735.89 804.12c3.42 1.28 6.9 2.53 10.25 4.06l-0.26 0.79c-3.83-0.34-6.98-2.69-9.99-4.85z"/>
<path id="path428" fill="#61af3c" d="m813.99 816c-5.42 10.63 12.76 1.62 16.2-2.87-17.15 30.62-57.04 37.39-88.3 27.71 6.57-0.9 15.64-0.03 23.13-0.77 9.07-0.93 18.06-3.58 26.16-7.79 8.8-3.59 16.07-9.73 22.81-16.28z"/>
</g>
</svg>
